<svg height="720pt" stroke-linejoin="round" viewBox="0 0 720 720" width="720pt" xmlns="http://www.w3.org/2000/svg" xmlns:xlink="http://www.w3.org/1999/xlink"><defs stroke-linejoin="round"><clipPath id="a" stroke-linejoin="round"><path d="m57.6 36h612v406.08h-612z"/></clipPath><clipPath id="b" stroke-linejoin="round"><path d="m57.6 442.08h612v203.04h-612z"/></clipPath><path id="c" d="m0 0v3.5" stroke="#000" stroke-linejoin="round" stroke-width=".8"/><path id="d" d="m0 0h-3.5" stroke="#000" stroke-linejoin="round" stroke-width=".8"/><path id="e" d="m0 0h-2" stroke="#000" stroke-linejoin="round" stroke-width=".6"/><path id="f" d="m-0 2.828427 2.828427-2.828427-2.828427-2.828427-2.828427 2.828427z" stroke="#000" stroke-linejoin="miter" stroke-width=".5"/><path id="g" d="m-2.5 2.5h5v-5h-5z" stroke="#000" stroke-linejoin="miter" stroke-width=".5"/><path id="h" d="m0 2.5c.663008 0 1.29895-.263416 1.767767-.732233s.732233-1.104759.732233-1.767767-.263416-1.29895-.732233-1.767767-1.104759-.732233-1.767767-.732233-1.29895.263416-1.767767.732233-.732233 1.104759-.732233 1.767767.263416 1.29895.732233 1.767767 1.104759.732233 1.767767.732233z" stroke="#000" stroke-linejoin="round" stroke-width=".5"/><path id="i" d="m0-2.5-2.5 5h5z" stroke="#000" stroke-linejoin="miter" stroke-width=".5"/><path id="j" d="m0 0h3.5" stroke="#000" stroke-linejoin="round" stroke-width=".8"/></defs><g stroke-linejoin="round"><path d="m0 720h720v-720h-720z" fill="#fff"/><g><g stroke-linejoin="round"><path d="m57.6 442.08h612v-406.08h-612z" fill="#fff"/><path clip-path="url(#a)" d="m50.944812 653.058871v15.877742h6.655188v-15.877742z" fill="#ffa500" fill-opacity=".5"/><g stroke-width=".8"><g><path clip-path="url(#a)" d="m117.496692 442.08v-406.08" fill="none" stroke="#b0b0b0" stroke-dasharray=".8 1.32"/><use stroke="#000" x="117.496692" xlink:href="#c" y="442.08"/></g><g><path clip-path="url(#a)" d="m164.083009 442.08v-406.08" fill="none" stroke="#b0b0b0" stroke-dasharray=".8 1.32"/><use stroke="#000" x="164.083009" xlink:href="#c" y="442.08"/></g><g><path clip-path="url(#a)" d="m210.669325 442.08v-406.08" fill="none" stroke="#b0b0b0" stroke-dasharray=".8 1.32"/><use stroke="#000" x="210.669325" xlink:href="#c" y="442.08"/></g><g><path clip-path="url(#a)" d="m257.255641 442.08v-406.08" fill="none" stroke="#b0b0b0" stroke-dasharray=".8 1.32"/><use stroke="#000" x="257.255641" xlink:href="#c" y="442.08"/></g><g><path clip-path="url(#a)" d="m310.497145 442.08v-406.08" fill="none" stroke="#b0b0b0" stroke-dasharray=".8 1.32"/><use stroke="#000" x="310.497145" xlink:href="#c" y="442.08"/></g><g><path clip-path="url(#a)" d="m357.083462 442.08v-406.08" fill="none" stroke="#b0b0b0" stroke-dasharray=".8 1.32"/><use stroke="#000" x="357.083462" xlink:href="#c" y="442.08"/></g><g><path clip-path="url(#a)" d="m403.669778 442.08v-406.08" fill="none" stroke="#b0b0b0" stroke-dasharray=".8 1.32"/><use stroke="#000" x="403.669778" xlink:href="#c" y="442.08"/></g><g><path clip-path="url(#a)" d="m450.256094 442.08v-406.08" fill="none" stroke="#b0b0b0" stroke-dasharray=".8 1.32"/><use stroke="#000" x="450.256094" xlink:href="#c" y="442.08"/></g><g><path clip-path="url(#a)" d="m516.807975 442.08v-406.08" fill="none" stroke="#b0b0b0" stroke-dasharray=".8 1.32"/><use stroke="#000" x="516.807975" xlink:href="#c" y="442.08"/></g><g><path clip-path="url(#a)" d="m563.394291 442.08v-406.08" fill="none" stroke="#b0b0b0" stroke-dasharray=".8 1.32"/><use stroke="#000" x="563.394291" xlink:href="#c" y="442.08"/></g><g><path clip-path="url(#a)" d="m609.980607 442.08v-406.08" fill="none" stroke="#b0b0b0" stroke-dasharray=".8 1.32"/><use stroke="#000" x="609.980607" xlink:href="#c" y="442.08"/></g><g><path clip-path="url(#a)" d="m656.566923 442.08v-406.08" fill="none" stroke="#b0b0b0" stroke-dasharray=".8 1.32"/><use stroke="#000" x="656.566923" xlink:href="#c" y="442.08"/></g></g><g><g><path clip-path="url(#a)" d="m57.6 405.213024h612" fill="none" stroke="#b0b0b0" stroke-dasharray=".8 1.32" stroke-width=".8"/><use stroke="#000" stroke-width=".8" x="57.6" xlink:href="#d" y="405.213024"/><text transform="translate(29.45 408.632321)"><tspan font-family="DejaVu Sans" font-size="9" stroke-linejoin="round" x="0 5.726074" y="-.960938">10</tspan> <tspan font-family="DejaVu Sans" font-size="6.3" stroke-linejoin="round" x="11.538281 16.816992" y="-4.40625">−1</tspan></text></g><g><path clip-path="url(#a)" d="m57.6 352.468307h612" fill="none" stroke="#b0b0b0" stroke-dasharray=".8 1.32" stroke-width=".8"/><use stroke="#000" stroke-width=".8" x="57.6" xlink:href="#d" y="352.468307"/><text transform="translate(34.76 355.887603)"><tspan font-family="DejaVu Sans" font-size="9" stroke-linejoin="round" x="0 5.726074" y="-.873438">10</tspan> <tspan font-family="DejaVu Sans" font-size="6.3" stroke-linejoin="round" x="11.538281" y="-4.31875">0</tspan></text></g><g><path clip-path="url(#a)" d="m57.6 299.723589h612" fill="none" stroke="#b0b0b0" stroke-dasharray=".8 1.32" stroke-width=".8"/><use stroke="#000" stroke-width=".8" x="57.6" xlink:href="#d" y="299.723589"/><text transform="translate(34.76 303.142886)"><tspan font-family="DejaVu Sans" font-size="9" stroke-linejoin="round" x="0 5.726074" y="-.960938">10</tspan> <tspan font-family="DejaVu Sans" font-size="6.3" stroke-linejoin="round" x="11.538281" y="-4.40625">1</tspan></text></g><g><path clip-path="url(#a)" d="m57.6 246.978871h612" fill="none" stroke="#b0b0b0" stroke-dasharray=".8 1.32" stroke-width=".8"/><use stroke="#000" stroke-width=".8" x="57.6" xlink:href="#d" y="246.978871"/><text transform="translate(34.76 250.398168)"><tspan font-family="DejaVu Sans" font-size="9" stroke-linejoin="round" x="0 5.726074" y="-.873438">10</tspan> <tspan font-family="DejaVu Sans" font-size="6.3" stroke-linejoin="round" x="11.538281" y="-4.31875">2</tspan></text></g><g><path clip-path="url(#a)" d="m57.6 194.234153h612" fill="none" stroke="#b0b0b0" stroke-dasharray=".8 1.32" stroke-width=".8"/><use stroke="#000" stroke-width=".8" x="57.6" xlink:href="#d" y="194.234153"/><text transform="translate(34.76 197.65345)"><tspan font-family="DejaVu Sans" font-size="9" stroke-linejoin="round" x="0 5.726074" y="-.873438">10</tspan> <tspan font-family="DejaVu Sans" font-size="6.3" stroke-linejoin="round" x="11.538281" y="-4.31875">3</tspan></text></g><g><path clip-path="url(#a)" d="m57.6 141.489436h612" fill="none" stroke="#b0b0b0" stroke-dasharray=".8 1.32" stroke-width=".8"/><use stroke="#000" stroke-width=".8" x="57.6" xlink:href="#d" y="141.489436"/><text transform="translate(34.76 144.908732)"><tspan font-family="DejaVu Sans" font-size="9" stroke-linejoin="round" x="0 5.726074" y="-.960938">10</tspan> <tspan font-family="DejaVu Sans" font-size="6.3" stroke-linejoin="round" x="11.538281" y="-4.40625">4</tspan></text></g><g><path clip-path="url(#a)" d="m57.6 88.744718h612" fill="none" stroke="#b0b0b0" stroke-dasharray=".8 1.32" stroke-width=".8"/><use stroke="#000" stroke-width=".8" x="57.6" xlink:href="#d" y="88.744718"/><text transform="translate(34.76 92.164015)"><tspan font-family="DejaVu Sans" font-size="9" stroke-linejoin="round" x="0 5.726074" y="-.960938">10</tspan> <tspan font-family="DejaVu Sans" font-size="6.3" stroke-linejoin="round" x="11.538281" y="-4.40625">5</tspan></text></g><g><path clip-path="url(#a)" d="m57.6 36h612" fill="none" stroke="#b0b0b0" stroke-dasharray=".8 1.32" stroke-width=".8"/><use stroke="#000" stroke-width=".8" x="57.6" xlink:href="#d" y="36"/><text transform="translate(34.76 39.419297)"><tspan font-family="DejaVu Sans" font-size="9" stroke-linejoin="round" x="0 5.726074" y="-.873438">10</tspan> <tspan font-family="DejaVu Sans" font-size="6.3" stroke-linejoin="round" x="11.538281" y="-4.31875">6</tspan></text></g><g stroke="#000" stroke-width=".6"><use x="57.6" xlink:href="#e" y="442.08"/><use x="57.6" xlink:href="#e" y="432.792116"/><use x="57.6" xlink:href="#e" y="426.202258"/><use x="57.6" xlink:href="#e" y="421.090767"/><use x="57.6" xlink:href="#e" y="416.914374"/><use x="57.6" xlink:href="#e" y="413.383285"/><use x="57.6" xlink:href="#e" y="410.324516"/><use x="57.6" xlink:href="#e" y="407.62649"/><use x="57.6" xlink:href="#e" y="389.335282"/><use x="57.6" xlink:href="#e" y="380.047398"/><use x="57.6" xlink:href="#e" y="373.45754"/><use x="57.6" xlink:href="#e" y="368.346049"/><use x="57.6" xlink:href="#e" y="364.169656"/><use x="57.6" xlink:href="#e" y="360.638567"/><use x="57.6" xlink:href="#e" y="357.579798"/><use x="57.6" xlink:href="#e" y="354.881773"/><use x="57.6" xlink:href="#e" y="336.590564"/><use x="57.6" xlink:href="#e" y="327.302681"/><use x="57.6" xlink:href="#e" y="320.712822"/><use x="57.6" xlink:href="#e" y="315.601331"/><use x="57.6" xlink:href="#e" y="311.424939"/><use x="57.6" xlink:href="#e" y="307.893849"/><use x="57.6" xlink:href="#e" y="304.83508"/><use x="57.6" xlink:href="#e" y="302.137055"/><use x="57.6" xlink:href="#e" y="283.845847"/><use x="57.6" xlink:href="#e" y="274.557963"/><use x="57.6" xlink:href="#e" y="267.968105"/><use x="57.6" xlink:href="#e" y="262.856613"/><use x="57.6" xlink:href="#e" y="258.680221"/><use x="57.6" xlink:href="#e" y="255.149131"/><use x="57.6" xlink:href="#e" y="252.090362"/><use x="57.6" xlink:href="#e" y="249.392337"/><use x="57.6" xlink:href="#e" y="231.101129"/><use x="57.6" xlink:href="#e" y="221.813245"/><use x="57.6" xlink:href="#e" y="215.223387"/><use x="57.6" xlink:href="#e" y="210.111895"/><use x="57.6" xlink:href="#e" y="205.935503"/><use x="57.6" xlink:href="#e" y="202.404413"/><use x="57.6" xlink:href="#e" y="199.345645"/><use x="57.6" xlink:href="#e" y="196.647619"/><use x="57.6" xlink:href="#e" y="178.356411"/><use x="57.6" xlink:href="#e" y="169.068527"/><use x="57.6" xlink:href="#e" y="162.478669"/><use x="57.6" xlink:href="#e" y="157.367178"/><use x="57.6" xlink:href="#e" y="153.190785"/><use x="57.6" xlink:href="#e" y="149.659696"/><use x="57.6" xlink:href="#e" y="146.600927"/><use x="57.6" xlink:href="#e" y="143.902901"/><use x="57.6" xlink:href="#e" y="125.611693"/><use x="57.6" xlink:href="#e" y="116.32381"/><use x="57.6" xlink:href="#e" y="109.733951"/><use x="57.6" xlink:href="#e" y="104.62246"/><use x="57.6" xlink:href="#e" y="100.446067"/><use x="57.6" xlink:href="#e" y="96.914978"/><use x="57.6" xlink:href="#e" y="93.856209"/><use x="57.6" xlink:href="#e" y="91.158184"/><use x="57.6" xlink:href="#e" y="72.866976"/><use x="57.6" xlink:href="#e" y="63.579092"/><use x="57.6" xlink:href="#e" y="56.989233"/><use x="57.6" xlink:href="#e" y="51.877742"/><use x="57.6" xlink:href="#e" y="47.70135"/><use x="57.6" xlink:href="#e" y="44.17026"/><use x="57.6" xlink:href="#e" y="41.111491"/><use x="57.6" xlink:href="#e" y="38.413466"/></g><text font-family="DejaVu Sans" font-size="9" text-anchor="middle" transform="matrix(0 -1 1 0 -215.461719 262.618281)" x="23.578281" y="239.04">Cases per million inhabitants</text></g><path d="m503.497599 247.61924 166.102401-49.557252" style="fill:none;stroke:#ffa500;stroke-linecap:square;stroke-opacity:.01;stroke-width:4;clip-path:url(#a)"/><path d="m503.497599 260.397668 166.102401-35.097283" style="fill:none;stroke:#ffa500;stroke-linecap:square;stroke-opacity:.01;stroke-width:4;clip-path:url(#a)"/><path d="m503.497599 244.221998 166.102401-53.746838" style="fill:none;stroke:#ffa500;stroke-linecap:square;stroke-opacity:.01;stroke-width:4;clip-path:url(#a)"/><path d="m503.497599 281.159933 166.102401-91.840708" style="fill:none;stroke:#ffa500;stroke-linecap:square;stroke-opacity:.01;stroke-width:4;clip-path:url(#a)"/><path d="m503.497599 253.238905 166.102401-74.214724" style="fill:none;stroke:#ffa500;stroke-linecap:square;stroke-opacity:.01;stroke-width:4;clip-path:url(#a)"/><path d="m503.497599 277.053422 166.102401-26.1558" style="fill:none;stroke:#ffa500;stroke-linecap:square;stroke-opacity:.01;stroke-width:4;clip-path:url(#a)"/><path d="m503.497599 268.067429 166.102401-31.21735" style="fill:none;stroke:#ffa500;stroke-linecap:square;stroke-opacity:.01;stroke-width:4;clip-path:url(#a)"/><path d="m503.497599 261.599053 166.102401-79.387479" style="fill:none;stroke:#ffa500;stroke-linecap:square;stroke-opacity:.01;stroke-width:4;clip-path:url(#a)"/><path d="m503.497599 261.374535 166.102401-81.938315" style="fill:none;stroke:#ffa500;stroke-linecap:square;stroke-opacity:.01;stroke-width:4;clip-path:url(#a)"/><path d="m503.497599 265.746542 166.102401-32.412689" style="fill:none;stroke:#ffa500;stroke-linecap:square;stroke-opacity:.01;stroke-width:4;clip-path:url(#a)"/><path d="m503.497599 291.819155 166.102401-95.879975" style="fill:none;stroke:#ffa500;stroke-linecap:square;stroke-opacity:.01;stroke-width:4;clip-path:url(#a)"/><path d="m503.497599 249.323112 166.102401-67.9191" style="fill:none;stroke:#ffa500;stroke-linecap:square;stroke-opacity:.01;stroke-width:4;clip-path:url(#a)"/><path d="m503.497599 245.985552 166.102401-62.952419" style="fill:none;stroke:#ffa500;stroke-linecap:square;stroke-opacity:.01;stroke-width:4;clip-path:url(#a)"/><path d="m503.497599 247.792584 166.102401-70.442246" style="fill:none;stroke:#ffa500;stroke-linecap:square;stroke-opacity:.01;stroke-width:4;clip-path:url(#a)"/><path d="m503.497599 477.693977 166.102401-143.044134" style="fill:none;stroke:#ffa500;stroke-linecap:square;stroke-opacity:.01;stroke-width:4;clip-path:url(#a)"/><path d="m503.497599 247.251328 166.102401-69.964068" style="fill:none;stroke:#ffa500;stroke-linecap:square;stroke-opacity:.01;stroke-width:4;clip-path:url(#a)"/><path d="m503.497599 282.590433 166.102401-23.876003" style="fill:none;stroke:#ffa500;stroke-linecap:square;stroke-opacity:.01;stroke-width:4;clip-path:url(#a)"/><path d="m503.497599 254.463075 166.102401-39.645487" style="fill:none;stroke:#ffa500;stroke-linecap:square;stroke-opacity:.01;stroke-width:4;clip-path:url(#a)"/><path d="m503.497599 253.565225 166.102401-41.297823" style="fill:none;stroke:#ffa500;stroke-linecap:square;stroke-opacity:.01;stroke-width:4;clip-path:url(#a)"/><path d="m503.497599 274.095849 166.102401-27.19099" style="fill:none;stroke:#ffa500;stroke-linecap:square;stroke-opacity:.01;stroke-width:4;clip-path:url(#a)"/><path d="m503.497599 263.279608 166.102401-34.280648" style="fill:none;stroke:#ffa500;stroke-linecap:square;stroke-opacity:.01;stroke-width:4;clip-path:url(#a)"/><path d="m503.497599 257.459395 166.102401-36.827668" style="fill:none;stroke:#ffa500;stroke-linecap:square;stroke-opacity:.01;stroke-width:4;clip-path:url(#a)"/><path d="m503.497599 262.831402 166.102401-81.594508" style="fill:none;stroke:#ffa500;stroke-linecap:square;stroke-opacity:.01;stroke-width:4;clip-path:url(#a)"/><path d="m503.497599 248.235461 166.102401-45.167395" style="fill:none;stroke:#ffa500;stroke-linecap:square;stroke-opacity:.01;stroke-width:4;clip-path:url(#a)"/><path d="m503.497599 245.94838 166.102401-50.602472" style="fill:none;stroke:#ffa500;stroke-linecap:square;stroke-opacity:.01;stroke-width:4;clip-path:url(#a)"/><path d="m503.497599 257.772243 166.102401-80.11073" style="fill:none;stroke:#ffa500;stroke-linecap:square;stroke-opacity:.01;stroke-width:4;clip-path:url(#a)"/><path d="m503.497599 295.065157 166.102401-18.296679" style="fill:none;stroke:#ffa500;stroke-linecap:square;stroke-opacity:.01;stroke-width:4;clip-path:url(#a)"/><path d="m503.497599 275.612481 166.102401-27.229661" style="fill:none;stroke:#ffa500;stroke-linecap:square;stroke-opacity:.01;stroke-width:4;clip-path:url(#a)"/><path d="m503.497599 243.897757 166.102401-65.998922" style="fill:none;stroke:#ffa500;stroke-linecap:square;stroke-opacity:.01;stroke-width:4;clip-path:url(#a)"/><path d="m503.497599 259.419954 166.102401-37.853972" style="fill:none;stroke:#ffa500;stroke-linecap:square;stroke-opacity:.01;stroke-width:4;clip-path:url(#a)"/><path d="m503.497599 268.802382 166.102401-30.070318" style="fill:none;stroke:#ffa500;stroke-linecap:square;stroke-opacity:.01;stroke-width:4;clip-path:url(#a)"/><path d="m503.497599 254.421364 166.102401-72.422277" style="fill:none;stroke:#ffa500;stroke-linecap:square;stroke-opacity:.01;stroke-width:4;clip-path:url(#a)"/><path d="m503.497599 244.475156 166.102401-58.452273" style="fill:none;stroke:#ffa500;stroke-linecap:square;stroke-opacity:.01;stroke-width:4;clip-path:url(#a)"/><path d="m503.497599 245.522787 166.102401-56.922484" style="fill:none;stroke:#ffa500;stroke-linecap:square;stroke-opacity:.01;stroke-width:4;clip-path:url(#a)"/><path d="m503.497599 262.582217 166.102401-36.076131" style="fill:none;stroke:#ffa500;stroke-linecap:square;stroke-opacity:.01;stroke-width:4;clip-path:url(#a)"/><path d="m503.497599 328.587046 166.102401-109.378913" style="fill:none;stroke:#ffa500;stroke-linecap:square;stroke-opacity:.01;stroke-width:4;clip-path:url(#a)"/><path d="m503.497599 249.040331 166.102401-70.482388" style="fill:none;stroke:#ffa500;stroke-linecap:square;stroke-opacity:.01;stroke-width:4;clip-path:url(#a)"/><path d="m503.497599 247.966644 166.102401-71.732158" style="fill:none;stroke:#ffa500;stroke-linecap:square;stroke-opacity:.01;stroke-width:4;clip-path:url(#a)"/><path d="m503.497599 263.272799 166.102401-33.719085" style="fill:none;stroke:#ffa500;stroke-linecap:square;stroke-opacity:.01;stroke-width:4;clip-path:url(#a)"/><path d="m503.497599 296.476473 166.102401-97.841002" style="fill:none;stroke:#ffa500;stroke-linecap:square;stroke-opacity:.01;stroke-width:4;clip-path:url(#a)"/><path d="m503.497599 271.826167 166.102401-28.866448" style="fill:none;stroke:#ffa500;stroke-linecap:square;stroke-opacity:.01;stroke-width:4;clip-path:url(#a)"/><path d="m503.497599 254.040419 166.102401-77.1789" style="fill:none;stroke:#ffa500;stroke-linecap:square;stroke-opacity:.01;stroke-width:4;clip-path:url(#a)"/><path d="m503.497599 249.752569 166.102401-46.754396" style="fill:none;stroke:#ffa500;stroke-linecap:square;stroke-opacity:.01;stroke-width:4;clip-path:url(#a)"/><path d="m503.497599 254.354221 166.102401-78.438267" style="fill:none;stroke:#ffa500;stroke-linecap:square;stroke-opacity:.01;stroke-width:4;clip-path:url(#a)"/><path d="m503.497599 300.898813 166.102401-16.198439" style="fill:none;stroke:#ffa500;stroke-linecap:square;stroke-opacity:.01;stroke-width:4;clip-path:url(#a)"/><path d="m503.497599 249.268004 166.102401-45.111213" style="fill:none;stroke:#ffa500;stroke-linecap:square;stroke-opacity:.01;stroke-width:4;clip-path:url(#a)"/><path d="m503.497599 279.175677 166.102401-25.365285" style="fill:none;stroke:#ffa500;stroke-linecap:square;stroke-opacity:.01;stroke-width:4;clip-path:url(#a)"/><path d="m503.497599 293.027309 166.102401-96.160788" style="fill:none;stroke:#ffa500;stroke-linecap:square;stroke-opacity:.01;stroke-width:4;clip-path:url(#a)"/><path d="m503.497599 247.203612 166.102401-49.170115" style="fill:none;stroke:#ffa500;stroke-linecap:square;stroke-opacity:.01;stroke-width:4;clip-path:url(#a)"/><path d="m503.497599 249.011966 166.102401-45.174567" style="fill:none;stroke:#ffa500;stroke-linecap:square;stroke-opacity:.01;stroke-width:4;clip-path:url(#a)"/></g><g clip-path="url(#a)" fill="#00bfff" stroke="#000" stroke-linejoin="miter" stroke-width=".5"><use x="397.173017" xlink:href="#f" y="51841"/><use x="403.669778" xlink:href="#f" y="327.302681"/><use x="410.324966" xlink:href="#f" y="327.302681"/><use x="416.980154" xlink:href="#f" y="327.302681"/><use x="423.635342" xlink:href="#f" y="304.83508"/><use x="430.29053" xlink:href="#f" y="295.547196"/><use x="436.945718" xlink:href="#f" y="292.016107"/><use x="443.600906" xlink:href="#f" y="290.435705"/><use x="450.256094" xlink:href="#f" y="276.971429"/><use x="456.911282" xlink:href="#f" y="275.334537"/><use x="463.56647" xlink:href="#f" y="273.079596"/><use x="470.221658" xlink:href="#f" y="273.079596"/><use x="476.876846" xlink:href="#f" y="263.319391"/><use x="483.532034" xlink:href="#f" y="261.521863"/><use x="490.187222" xlink:href="#f" y="259.855183"/><use x="496.842411" xlink:href="#f" y="259.456795"/><use x="503.497599" xlink:href="#f" y="258.680221"/><use x="510.152787" xlink:href="#f" y="239.435596"/><use x="516.807975" xlink:href="#f" y="238.153765"/><use x="523.463163" xlink:href="#f" y="237.387582"/><use x="530.118351" xlink:href="#f" y="237.088144"/><use x="536.773539" xlink:href="#f" y="228.607629"/></g><g clip-path="url(#a)" fill="#3cb371" stroke="#000" stroke-linejoin="miter" stroke-width=".5"><use x="443.759408" xlink:href="#g" y="51841"/><use x="450.256094" xlink:href="#g" y="352.468307"/><use x="456.911282" xlink:href="#g" y="352.468307"/><use x="463.56647" xlink:href="#g" y="352.468307"/><use x="470.221658" xlink:href="#g" y="352.468307"/><use x="476.876846" xlink:href="#g" y="352.468307"/><use x="483.532034" xlink:href="#g" y="352.468307"/><use x="490.187222" xlink:href="#g" y="352.468307"/><use x="496.842411" xlink:href="#g" y="352.468307"/><use x="503.497599" xlink:href="#g" y="352.468307"/><use x="510.152787" xlink:href="#g" y="336.590564"/><use x="516.807975" xlink:href="#g" y="311.424939"/><use x="523.463163" xlink:href="#g" y="311.424939"/><use x="530.118351" xlink:href="#g" y="307.893849"/><use x="536.773539" xlink:href="#g" y="295.547196"/></g><g clip-path="url(#a)" fill="#ffa500" stroke="#000" stroke-linejoin="round" stroke-width=".5"><use x="397.173017" xlink:href="#h" y="51841"/><use x="403.669778" xlink:href="#h" y="327.302681"/><use x="410.324966" xlink:href="#h" y="327.302681"/><use x="416.980154" xlink:href="#h" y="327.302681"/><use x="423.635342" xlink:href="#h" y="304.83508"/><use x="430.29053" xlink:href="#h" y="295.547196"/><use x="436.945718" xlink:href="#h" y="292.016107"/><use x="443.600906" xlink:href="#h" y="290.435705"/><use x="450.256094" xlink:href="#h" y="278.734355"/><use x="456.911282" xlink:href="#h" y="276.971429"/><use x="463.56647" xlink:href="#h" y="274.557963"/><use x="470.221658" xlink:href="#h" y="274.557963"/><use x="476.876846" xlink:href="#h" y="264.273977"/><use x="483.532034" xlink:href="#h" y="262.403"/><use x="490.187222" xlink:href="#h" y="260.673368"/><use x="496.842411" xlink:href="#h" y="260.260623"/><use x="503.497599" xlink:href="#h" y="259.456795"/><use x="510.152787" xlink:href="#h" y="240.104453"/><use x="516.807975" xlink:href="#h" y="239.600988"/><use x="523.463163" xlink:href="#h" y="238.785716"/><use x="530.118351" xlink:href="#h" y="238.785716"/><use x="536.773539" xlink:href="#h" y="230.313104"/></g><g clip-path="url(#a)" fill="#ff4500" stroke="#000" stroke-linejoin="miter" stroke-width=".5"><use x="443.759408" xlink:href="#i" y="51841"/><use x="450.256094" xlink:href="#i" y="352.468307"/><use x="456.911282" xlink:href="#i" y="352.468307"/><use x="463.56647" xlink:href="#i" y="352.468307"/><use x="470.221658" xlink:href="#i" y="352.468307"/><use x="476.876846" xlink:href="#i" y="352.468307"/><use x="483.532034" xlink:href="#i" y="352.468307"/><use x="490.187222" xlink:href="#i" y="352.468307"/><use x="496.842411" xlink:href="#i" y="352.468307"/><use x="503.497599" xlink:href="#i" y="352.468307"/><use x="510.152787" xlink:href="#i" y="336.590564"/><use x="516.807975" xlink:href="#i" y="327.302681"/><use x="523.463163" xlink:href="#i" y="327.302681"/><use x="530.118351" xlink:href="#i" y="320.712822"/><use x="536.773539" xlink:href="#i" y="320.712822"/></g><path d="m57.6 442.08v-406.08" fill="none" stroke="#000" stroke-linecap="square" stroke-linejoin="miter" stroke-width=".8"/><path d="m669.6 442.08v-406.08" fill="none" stroke="#000" stroke-linecap="square" stroke-linejoin="miter" stroke-width=".8"/><path d="m57.6 442.08h612" fill="none" stroke="#000" stroke-linecap="square" stroke-linejoin="miter" stroke-width=".8"/><path d="m57.6 36h612" fill="none" stroke="#000" stroke-linecap="square" stroke-linejoin="miter" stroke-width=".8"/><g stroke-linejoin="round"><path d="m69.84 105.6136h126.64375v-61.492h-126.64375z" fill="#fff" opacity=".7" stroke="#fff" stroke-linejoin="miter"/><g stroke-linejoin="round"><text transform="translate(69.84 50.20035)"><tspan font-family="DejaVu Sans" font-size="8" font-weight="bold" stroke-linejoin="round" x="0 6.566406 12.261719 17.660156" y="-.0625">Guam</tspan></text><text font-family="DejaVu Sans" font-size="8" transform="translate(69.84 59.1586)">Total: 223</text><text font-family="DejaVu Sans" font-size="8" transform="translate(69.84 68.11685)">Active: 207.0 (+11%/day)</text><text font-family="DejaVu Sans" font-size="8" transform="translate(69.84 77.0751)">   → doubling in 7±3 days</text><text font-family="DejaVu Sans" font-size="8" transform="translate(69.84 86.03335)">Deaths: 4 (1.8%) (Δ:+15%/day)</text><text font-family="DejaVu Sans" font-size="8" transform="translate(69.84 94.9916)">   → Δ: doubling in 5±9 days</text><text font-family="DejaVu Sans" font-size="8" transform="translate(69.84 103.94985)">Recovered: 12.0 (5.4%)</text></g></g><g stroke-linejoin="round"><path d="m320.024531 78.330938h343.275469q1.8 0 1.8-1.8v-34.230938q0-1.8-1.8-1.8h-343.275469q-1.8 0-1.8 1.8v34.230938q0 1.8 1.8 1.8z" fill="#fff" opacity=".8" stroke="#ccc" stroke-linejoin="miter"/><path d="m321.824531 47.788594h18" fill="none" stroke="#f00" stroke-dasharray="1.5 2.475" stroke-linejoin="round" stroke-width="1.5"/><text font-family="DejaVu Sans" font-size="9" stroke-linejoin="round" x="347.024531" y="50.938594">Critical cases ≈ ICU beds</text><use fill="#00bfff" stroke="#000" stroke-linejoin="miter" stroke-width=".5" x="330.824531" xlink:href="#f" y="58.748906"/><text font-family="DejaVu Sans" font-size="9" stroke-linejoin="round" x="347.024531" y="61.898906">Total</text><use fill="#3cb371" stroke="#000" stroke-linejoin="miter" stroke-width=".5" x="330.824531" xlink:href="#g" y="69.709219"/><g stroke-linejoin="round"><text font-family="DejaVu Sans" font-size="9" x="347.024531" y="72.859219">Recovered</text><use fill="#ffa500" stroke="#000" stroke-width=".5" x="487.043438" xlink:href="#h" y="47.788594"/><text font-family="DejaVu Sans" font-size="9" x="503.243438" y="50.938594">Active</text></g><use fill="#ff4500" stroke="#000" stroke-linejoin="miter" stroke-width=".5" x="487.043438" xlink:href="#i" y="58.748906"/><text font-family="DejaVu Sans" font-size="9" stroke-linejoin="round" x="503.243438" y="61.898906">Deaths</text><path d="m553.147031 50.938594h18v-6.3h-18z" fill="#ffa500" opacity=".5" stroke-linejoin="round"/><text font-family="DejaVu Sans" font-size="9" stroke-linejoin="round" x="578.347031" y="50.938594">Active (projected)</text><path d="m553.147031 61.898906h18v-6.3h-18z" opacity=".5" stroke="#000" stroke-linejoin="miter"/><text font-family="DejaVu Sans" font-size="9" stroke-linejoin="round" x="578.347031" y="61.898906">Active growth rate</text></g></g><g><g stroke-linejoin="round"><path d="m57.6 645.12h612v-203.04h-612z" fill="#fff"/><g clip-path="url(#b)"><path d="m403.669778-151.02h6.655188 6.655188 6.655188l6.655188-193.37454 6.655188 48.373921 6.655188 44.829708 6.655188 5.119787 6.655188 16.641074 6.655188 11.807853 6.655188 18.644637 6.655188-11.131816 6.655188-3.617179 6.655188 6.77266 6.655189 12.645238 6.655188 28.200469 6.655188-117.034794 6.655188 16.191682 6.655188 26.844246 6.655188 32.181353 6.655188 16.528376v24.358353l-6.655188 3.516266-6.655188-23.110131-6.655188-20.783175-6.655188 4.861185-6.655188 40.664018-6.655188-9.007339-6.655189-13.958214-6.655188-5.398833-6.655188 9.342133-6.655188 8.712139-6.655188-19.521945-6.655188-10.327048-6.655188-10.610171-6.655188 13.16862-6.655188-38.248503-6.655188-32.95799-6.655188 119.67796h-6.655188-6.655188z" fill-opacity=".5" stroke="#000" stroke-linejoin="round" stroke-opacity=".5" transform="translate(0 720)"/></g><g><g><path clip-path="url(#b)" d="m117.496692 645.12v-203.04" fill="none" stroke="#b0b0b0" stroke-dasharray=".8 1.32" stroke-width=".8"/><use stroke="#000" stroke-width=".8" x="117.496692" xlink:href="#c" y="645.12"/><text font-family="DejaVu Sans" font-size="9" text-anchor="middle" x="117.496692" y="658.958594">Feb</text></g><g><path clip-path="url(#b)" d="m164.083009 645.12v-203.04" fill="none" stroke="#b0b0b0" stroke-dasharray=".8 1.32" stroke-width=".8"/><use stroke="#000" stroke-width=".8" x="164.083009" xlink:href="#c" y="645.12"/><text font-family="DejaVu Sans" font-size="9" text-anchor="middle" x="164.083009" y="658.958594">08</text></g><g><path clip-path="url(#b)" d="m210.669325 645.12v-203.04" fill="none" stroke="#b0b0b0" stroke-dasharray=".8 1.32" stroke-width=".8"/><use stroke="#000" stroke-width=".8" x="210.669325" xlink:href="#c" y="645.12"/><text font-family="DejaVu Sans" font-size="9" text-anchor="middle" x="210.669325" y="658.958594">15</text></g><g><path clip-path="url(#b)" d="m257.255641 645.12v-203.04" fill="none" stroke="#b0b0b0" stroke-dasharray=".8 1.32" stroke-width=".8"/><use stroke="#000" stroke-width=".8" x="257.255641" xlink:href="#c" y="645.12"/><text font-family="DejaVu Sans" font-size="9" text-anchor="middle" x="257.255641" y="658.958594">22</text></g><g><path clip-path="url(#b)" d="m310.497145 645.12v-203.04" fill="none" stroke="#b0b0b0" stroke-dasharray=".8 1.32" stroke-width=".8"/><use stroke="#000" stroke-width=".8" x="310.497145" xlink:href="#c" y="645.12"/><text font-family="DejaVu Sans" font-size="9" text-anchor="middle" x="310.497145" y="658.958594">Mar</text></g><g><path clip-path="url(#b)" d="m357.083462 645.12v-203.04" fill="none" stroke="#b0b0b0" stroke-dasharray=".8 1.32" stroke-width=".8"/><use stroke="#000" stroke-width=".8" x="357.083462" xlink:href="#c" y="645.12"/><text font-family="DejaVu Sans" font-size="9" text-anchor="middle" x="357.083462" y="658.958594">08</text></g><g><path clip-path="url(#b)" d="m403.669778 645.12v-203.04" fill="none" stroke="#b0b0b0" stroke-dasharray=".8 1.32" stroke-width=".8"/><use stroke="#000" stroke-width=".8" x="403.669778" xlink:href="#c" y="645.12"/><text font-family="DejaVu Sans" font-size="9" text-anchor="middle" x="403.669778" y="658.958594">15</text></g><g><path clip-path="url(#b)" d="m450.256094 645.12v-203.04" fill="none" stroke="#b0b0b0" stroke-dasharray=".8 1.32" stroke-width=".8"/><use stroke="#000" stroke-width=".8" x="450.256094" xlink:href="#c" y="645.12"/><text font-family="DejaVu Sans" font-size="9" text-anchor="middle" x="450.256094" y="658.958594">22</text></g><g><path clip-path="url(#b)" d="m516.807975 645.12v-203.04" fill="none" stroke="#b0b0b0" stroke-dasharray=".8 1.32" stroke-width=".8"/><use stroke="#000" stroke-width=".8" x="516.807975" xlink:href="#c" y="645.12"/><text font-family="DejaVu Sans" font-size="9" text-anchor="middle" x="516.807975" y="658.958594">Apr</text></g><g><path clip-path="url(#b)" d="m563.394291 645.12v-203.04" fill="none" stroke="#b0b0b0" stroke-dasharray=".8 1.32" stroke-width=".8"/><use stroke="#000" stroke-width=".8" x="563.394291" xlink:href="#c" y="645.12"/><text font-family="DejaVu Sans" font-size="9" text-anchor="middle" x="563.394291" y="658.958594">08</text></g><g><path clip-path="url(#b)" d="m609.980607 645.12v-203.04" fill="none" stroke="#b0b0b0" stroke-dasharray=".8 1.32" stroke-width=".8"/><use stroke="#000" stroke-width=".8" x="609.980607" xlink:href="#c" y="645.12"/><text font-family="DejaVu Sans" font-size="9" text-anchor="middle" x="609.980607" y="658.958594">15</text></g><g><path clip-path="url(#b)" d="m656.566923 645.12v-203.04" fill="none" stroke="#b0b0b0" stroke-dasharray=".8 1.32" stroke-width=".8"/><use stroke="#000" stroke-width=".8" x="656.566923" xlink:href="#c" y="645.12"/><text font-family="DejaVu Sans" font-size="9" text-anchor="middle" x="656.566923" y="658.958594">22</text></g></g><g><g><path clip-path="url(#b)" d="m57.6 619.74h612" fill="none" stroke="#b0b0b0" stroke-dasharray=".8 1.32" stroke-width=".8"/><use stroke="#000" stroke-width=".8" x="57.6" xlink:href="#d" y="619.74"/><text font-family="DejaVu Sans" font-size="9" text-anchor="end" x="50.6" y="623.159297">−20</text></g><g><path clip-path="url(#b)" d="m57.6 594.36h612" fill="none" stroke="#b0b0b0" stroke-dasharray=".8 1.32" stroke-width=".8"/><use stroke="#000" stroke-width=".8" x="57.6" xlink:href="#d" y="594.36"/><text font-family="DejaVu Sans" font-size="9" text-anchor="end" x="50.6" y="597.779297">−10</text></g><g><path clip-path="url(#b)" d="m57.6 568.98h612" fill="none" stroke="#b0b0b0" stroke-dasharray=".8 1.32" stroke-width=".8"/><use stroke="#000" stroke-width=".8" x="57.6" xlink:href="#d" y="568.98"/><text font-family="DejaVu Sans" font-size="9" text-anchor="end" x="50.6" y="572.399297">0</text></g><g><path clip-path="url(#b)" d="m57.6 543.6h612" fill="none" stroke="#b0b0b0" stroke-dasharray=".8 1.32" stroke-width=".8"/><use stroke="#000" stroke-width=".8" x="57.6" xlink:href="#d" y="543.6"/><text font-family="DejaVu Sans" font-size="9" text-anchor="end" x="50.6" y="547.019297">10</text></g><g><path clip-path="url(#b)" d="m57.6 518.22h612" fill="none" stroke="#b0b0b0" stroke-dasharray=".8 1.32" stroke-width=".8"/><use stroke="#000" stroke-width=".8" x="57.6" xlink:href="#d" y="518.22"/><text font-family="DejaVu Sans" font-size="9" text-anchor="end" x="50.6" y="521.639297">20</text></g><g><path clip-path="url(#b)" d="m57.6 492.84h612" fill="none" stroke="#b0b0b0" stroke-dasharray=".8 1.32" stroke-width=".8"/><use stroke="#000" stroke-width=".8" x="57.6" xlink:href="#d" y="492.84"/><text font-family="DejaVu Sans" font-size="9" text-anchor="end" x="50.6" y="496.259297">30</text></g><g><path clip-path="url(#b)" d="m57.6 467.46h612" fill="none" stroke="#b0b0b0" stroke-dasharray=".8 1.32" stroke-width=".8"/><use stroke="#000" stroke-width=".8" x="57.6" xlink:href="#d" y="467.46"/><text font-family="DejaVu Sans" font-size="9" text-anchor="end" x="50.6" y="470.879297">40</text></g><text font-family="DejaVu Sans" font-size="9" text-anchor="middle" transform="matrix(0 -1 1 0 -517.865937 569.334063)" x="25.734063" y="543.6">Growth rate (%/day)</text></g><path clip-path="url(#b)" d="m57.6 568.98h612" fill="none" stroke="#000" stroke-linecap="square" stroke-width="1.5"/></g><path d="m57.6 645.12v-203.04" fill="none" stroke="#000" stroke-linecap="square" stroke-linejoin="miter" stroke-width=".8"/><path d="m669.6 645.12v-203.04" fill="none" stroke="#000" stroke-linecap="square" stroke-linejoin="miter" stroke-width=".8"/><path d="m57.6 645.12h612" fill="none" stroke="#000" stroke-linecap="square" stroke-linejoin="miter" stroke-width=".8"/><path d="m57.6 442.08h612" fill="none" stroke="#000" stroke-linecap="square" stroke-linejoin="miter" stroke-width=".8"/></g><g><g stroke-linejoin="round"><g><use stroke="#000" stroke-width=".8" x="669.6" xlink:href="#j" y="619.74"/><text font-family="DejaVu Sans" font-size="9" x="676.6" y="623.159297">-3.1</text></g><g><use stroke="#000" stroke-width=".8" x="669.6" xlink:href="#j" y="594.36"/><text font-family="DejaVu Sans" font-size="9" x="676.6" y="597.779297">-6.6</text></g><g><use stroke="#000" stroke-width=".8" x="669.6" xlink:href="#j" y="568.98"/><text font-family="DejaVu Sans" font-size="9" x="676.6" y="572.399297">∞</text></g><g><use stroke="#000" stroke-width=".8" x="669.6" xlink:href="#j" y="543.6"/><text font-family="DejaVu Sans" font-size="9" x="676.6" y="547.019297">7.3</text></g><g><use stroke="#000" stroke-width=".8" x="669.6" xlink:href="#j" y="518.22"/><text font-family="DejaVu Sans" font-size="9" x="676.6" y="521.639297">3.8</text></g><g><use stroke="#000" stroke-width=".8" x="669.6" xlink:href="#j" y="492.84"/><text font-family="DejaVu Sans" font-size="9" x="676.6" y="496.259297">2.6</text></g><g><use stroke="#000" stroke-width=".8" x="669.6" xlink:href="#j" y="467.46"/><text font-family="DejaVu Sans" font-size="9" x="676.6" y="470.879297">2.1</text></g><text font-family="DejaVu Sans" font-size="9" text-anchor="middle" transform="matrix(0 -1 1 0 161.398438 1248.598438)" x="704.998438" y="543.6">Doubling time (days)</text></g><g fill="none" stroke="#000" stroke-linecap="square" stroke-linejoin="miter" stroke-width=".8"><path d="m57.6 645.12v-203.04"/><path d="m669.6 645.12v-203.04"/><path d="m57.6 645.12h612"/><path d="m57.6 442.08h612"/></g></g><text font-family="DejaVu Sans" font-size="12" text-anchor="middle" x="360" y="23.518125">Guam per-capita COVID-19 cases and exponential projection</text></g></svg>