<svg height="720pt" stroke-linejoin="round" viewBox="0 0 720 720" width="720pt" xmlns="http://www.w3.org/2000/svg" xmlns:xlink="http://www.w3.org/1999/xlink"><defs stroke-linejoin="round"><clipPath id="a" stroke-linejoin="round"><path d="m57.6 36h612v406.08h-612z"/></clipPath><clipPath id="b" stroke-linejoin="round"><path d="m57.6 442.08h612v203.04h-612z"/></clipPath><path id="c" d="m0 0v3.5" stroke="#000" stroke-linejoin="round" stroke-width=".8"/><path id="d" d="m0 0h-3.5" stroke="#000" stroke-linejoin="round" stroke-width=".8"/><path id="e" d="m0 0h-2" stroke="#000" stroke-linejoin="round" stroke-width=".6"/><path id="f" d="m-0 2.828427 2.828427-2.828427-2.828427-2.828427-2.828427 2.828427z" stroke="#000" stroke-linejoin="miter" stroke-width=".5"/><path id="g" d="m-2.5 2.5h5v-5h-5z" stroke="#000" stroke-linejoin="miter" stroke-width=".5"/><path id="h" d="m0 2.5c.663008 0 1.29895-.263416 1.767767-.732233s.732233-1.104759.732233-1.767767-.263416-1.29895-.732233-1.767767-1.104759-.732233-1.767767-.732233-1.29895.263416-1.767767.732233-.732233 1.104759-.732233 1.767767.263416 1.29895.732233 1.767767 1.104759.732233 1.767767.732233z" stroke="#000" stroke-linejoin="round" stroke-width=".5"/><path id="i" d="m0-2.5-2.5 5h5z" stroke="#000" stroke-linejoin="miter" stroke-width=".5"/><path id="j" d="m0 0h3.5" stroke="#000" stroke-linejoin="round" stroke-width=".8"/></defs><g stroke-linejoin="round"><path d="m0 720h720v-720h-720z" fill="#fff"/><g><g stroke-linejoin="round"><path d="m57.6 442.08h612v-406.08h-612z" fill="#fff"/><path clip-path="url(#a)" d="m50.944812 653.058871v15.877742h6.655188v-15.877742z" fill="#ffa500" fill-opacity=".5"/><g stroke-width=".8"><g><path clip-path="url(#a)" d="m117.496692 442.08v-406.08" fill="none" stroke="#b0b0b0" stroke-dasharray=".8 1.32"/><use stroke="#000" x="117.496692" xlink:href="#c" y="442.08"/></g><g><path clip-path="url(#a)" d="m164.083009 442.08v-406.08" fill="none" stroke="#b0b0b0" stroke-dasharray=".8 1.32"/><use stroke="#000" x="164.083009" xlink:href="#c" y="442.08"/></g><g><path clip-path="url(#a)" d="m210.669325 442.08v-406.08" fill="none" stroke="#b0b0b0" stroke-dasharray=".8 1.32"/><use stroke="#000" x="210.669325" xlink:href="#c" y="442.08"/></g><g><path clip-path="url(#a)" d="m257.255641 442.08v-406.08" fill="none" stroke="#b0b0b0" stroke-dasharray=".8 1.32"/><use stroke="#000" x="257.255641" xlink:href="#c" y="442.08"/></g><g><path clip-path="url(#a)" d="m310.497145 442.08v-406.08" fill="none" stroke="#b0b0b0" stroke-dasharray=".8 1.32"/><use stroke="#000" x="310.497145" xlink:href="#c" y="442.08"/></g><g><path clip-path="url(#a)" d="m357.083462 442.08v-406.08" fill="none" stroke="#b0b0b0" stroke-dasharray=".8 1.32"/><use stroke="#000" x="357.083462" xlink:href="#c" y="442.08"/></g><g><path clip-path="url(#a)" d="m403.669778 442.08v-406.08" fill="none" stroke="#b0b0b0" stroke-dasharray=".8 1.32"/><use stroke="#000" x="403.669778" xlink:href="#c" y="442.08"/></g><g><path clip-path="url(#a)" d="m450.256094 442.08v-406.08" fill="none" stroke="#b0b0b0" stroke-dasharray=".8 1.32"/><use stroke="#000" x="450.256094" xlink:href="#c" y="442.08"/></g><g><path clip-path="url(#a)" d="m516.807975 442.08v-406.08" fill="none" stroke="#b0b0b0" stroke-dasharray=".8 1.32"/><use stroke="#000" x="516.807975" xlink:href="#c" y="442.08"/></g><g><path clip-path="url(#a)" d="m563.394291 442.08v-406.08" fill="none" stroke="#b0b0b0" stroke-dasharray=".8 1.32"/><use stroke="#000" x="563.394291" xlink:href="#c" y="442.08"/></g><g><path clip-path="url(#a)" d="m609.980607 442.08v-406.08" fill="none" stroke="#b0b0b0" stroke-dasharray=".8 1.32"/><use stroke="#000" x="609.980607" xlink:href="#c" y="442.08"/></g><g><path clip-path="url(#a)" d="m656.566923 442.08v-406.08" fill="none" stroke="#b0b0b0" stroke-dasharray=".8 1.32"/><use stroke="#000" x="656.566923" xlink:href="#c" y="442.08"/></g></g><g><g><path clip-path="url(#a)" d="m57.6 405.213024h612" fill="none" stroke="#b0b0b0" stroke-dasharray=".8 1.32" stroke-width=".8"/><use stroke="#000" stroke-width=".8" x="57.6" xlink:href="#d" y="405.213024"/><text transform="translate(29.45 408.632321)"><tspan font-family="DejaVu Sans" font-size="9" stroke-linejoin="round" x="0 5.726074" y="-.960938">10</tspan> <tspan font-family="DejaVu Sans" font-size="6.3" stroke-linejoin="round" x="11.538281 16.816992" y="-4.40625">−1</tspan></text></g><g><path clip-path="url(#a)" d="m57.6 352.468307h612" fill="none" stroke="#b0b0b0" stroke-dasharray=".8 1.32" stroke-width=".8"/><use stroke="#000" stroke-width=".8" x="57.6" xlink:href="#d" y="352.468307"/><text transform="translate(34.76 355.887603)"><tspan font-family="DejaVu Sans" font-size="9" stroke-linejoin="round" x="0 5.726074" y="-.873438">10</tspan> <tspan font-family="DejaVu Sans" font-size="6.3" stroke-linejoin="round" x="11.538281" y="-4.31875">0</tspan></text></g><g><path clip-path="url(#a)" d="m57.6 299.723589h612" fill="none" stroke="#b0b0b0" stroke-dasharray=".8 1.32" stroke-width=".8"/><use stroke="#000" stroke-width=".8" x="57.6" xlink:href="#d" y="299.723589"/><text transform="translate(34.76 303.142886)"><tspan font-family="DejaVu Sans" font-size="9" stroke-linejoin="round" x="0 5.726074" y="-.960938">10</tspan> <tspan font-family="DejaVu Sans" font-size="6.3" stroke-linejoin="round" x="11.538281" y="-4.40625">1</tspan></text></g><g><path clip-path="url(#a)" d="m57.6 246.978871h612" fill="none" stroke="#b0b0b0" stroke-dasharray=".8 1.32" stroke-width=".8"/><use stroke="#000" stroke-width=".8" x="57.6" xlink:href="#d" y="246.978871"/><text transform="translate(34.76 250.398168)"><tspan font-family="DejaVu Sans" font-size="9" stroke-linejoin="round" x="0 5.726074" y="-.873438">10</tspan> <tspan font-family="DejaVu Sans" font-size="6.3" stroke-linejoin="round" x="11.538281" y="-4.31875">2</tspan></text></g><g><path clip-path="url(#a)" d="m57.6 194.234153h612" fill="none" stroke="#b0b0b0" stroke-dasharray=".8 1.32" stroke-width=".8"/><use stroke="#000" stroke-width=".8" x="57.6" xlink:href="#d" y="194.234153"/><text transform="translate(34.76 197.65345)"><tspan font-family="DejaVu Sans" font-size="9" stroke-linejoin="round" x="0 5.726074" y="-.873438">10</tspan> <tspan font-family="DejaVu Sans" font-size="6.3" stroke-linejoin="round" x="11.538281" y="-4.31875">3</tspan></text></g><g><path clip-path="url(#a)" d="m57.6 141.489436h612" fill="none" stroke="#b0b0b0" stroke-dasharray=".8 1.32" stroke-width=".8"/><use stroke="#000" stroke-width=".8" x="57.6" xlink:href="#d" y="141.489436"/><text transform="translate(34.76 144.908732)"><tspan font-family="DejaVu Sans" font-size="9" stroke-linejoin="round" x="0 5.726074" y="-.960938">10</tspan> <tspan font-family="DejaVu Sans" font-size="6.3" stroke-linejoin="round" x="11.538281" y="-4.40625">4</tspan></text></g><g><path clip-path="url(#a)" d="m57.6 88.744718h612" fill="none" stroke="#b0b0b0" stroke-dasharray=".8 1.32" stroke-width=".8"/><use stroke="#000" stroke-width=".8" x="57.6" xlink:href="#d" y="88.744718"/><text transform="translate(34.76 92.164015)"><tspan font-family="DejaVu Sans" font-size="9" stroke-linejoin="round" x="0 5.726074" y="-.960938">10</tspan> <tspan font-family="DejaVu Sans" font-size="6.3" stroke-linejoin="round" x="11.538281" y="-4.40625">5</tspan></text></g><g><path clip-path="url(#a)" d="m57.6 36h612" fill="none" stroke="#b0b0b0" stroke-dasharray=".8 1.32" stroke-width=".8"/><use stroke="#000" stroke-width=".8" x="57.6" xlink:href="#d" y="36"/><text transform="translate(34.76 39.419297)"><tspan font-family="DejaVu Sans" font-size="9" stroke-linejoin="round" x="0 5.726074" y="-.873438">10</tspan> <tspan font-family="DejaVu Sans" font-size="6.3" stroke-linejoin="round" x="11.538281" y="-4.31875">6</tspan></text></g><g stroke="#000" stroke-width=".6"><use x="57.6" xlink:href="#e" y="442.08"/><use x="57.6" xlink:href="#e" y="432.792116"/><use x="57.6" xlink:href="#e" y="426.202258"/><use x="57.6" xlink:href="#e" y="421.090767"/><use x="57.6" xlink:href="#e" y="416.914374"/><use x="57.6" xlink:href="#e" y="413.383285"/><use x="57.6" xlink:href="#e" y="410.324516"/><use x="57.6" xlink:href="#e" y="407.62649"/><use x="57.6" xlink:href="#e" y="389.335282"/><use x="57.6" xlink:href="#e" y="380.047398"/><use x="57.6" xlink:href="#e" y="373.45754"/><use x="57.6" xlink:href="#e" y="368.346049"/><use x="57.6" xlink:href="#e" y="364.169656"/><use x="57.6" xlink:href="#e" y="360.638567"/><use x="57.6" xlink:href="#e" y="357.579798"/><use x="57.6" xlink:href="#e" y="354.881773"/><use x="57.6" xlink:href="#e" y="336.590564"/><use x="57.6" xlink:href="#e" y="327.302681"/><use x="57.6" xlink:href="#e" y="320.712822"/><use x="57.6" xlink:href="#e" y="315.601331"/><use x="57.6" xlink:href="#e" y="311.424939"/><use x="57.6" xlink:href="#e" y="307.893849"/><use x="57.6" xlink:href="#e" y="304.83508"/><use x="57.6" xlink:href="#e" y="302.137055"/><use x="57.6" xlink:href="#e" y="283.845847"/><use x="57.6" xlink:href="#e" y="274.557963"/><use x="57.6" xlink:href="#e" y="267.968105"/><use x="57.6" xlink:href="#e" y="262.856613"/><use x="57.6" xlink:href="#e" y="258.680221"/><use x="57.6" xlink:href="#e" y="255.149131"/><use x="57.6" xlink:href="#e" y="252.090362"/><use x="57.6" xlink:href="#e" y="249.392337"/><use x="57.6" xlink:href="#e" y="231.101129"/><use x="57.6" xlink:href="#e" y="221.813245"/><use x="57.6" xlink:href="#e" y="215.223387"/><use x="57.6" xlink:href="#e" y="210.111895"/><use x="57.6" xlink:href="#e" y="205.935503"/><use x="57.6" xlink:href="#e" y="202.404413"/><use x="57.6" xlink:href="#e" y="199.345645"/><use x="57.6" xlink:href="#e" y="196.647619"/><use x="57.6" xlink:href="#e" y="178.356411"/><use x="57.6" xlink:href="#e" y="169.068527"/><use x="57.6" xlink:href="#e" y="162.478669"/><use x="57.6" xlink:href="#e" y="157.367178"/><use x="57.6" xlink:href="#e" y="153.190785"/><use x="57.6" xlink:href="#e" y="149.659696"/><use x="57.6" xlink:href="#e" y="146.600927"/><use x="57.6" xlink:href="#e" y="143.902901"/><use x="57.6" xlink:href="#e" y="125.611693"/><use x="57.6" xlink:href="#e" y="116.32381"/><use x="57.6" xlink:href="#e" y="109.733951"/><use x="57.6" xlink:href="#e" y="104.62246"/><use x="57.6" xlink:href="#e" y="100.446067"/><use x="57.6" xlink:href="#e" y="96.914978"/><use x="57.6" xlink:href="#e" y="93.856209"/><use x="57.6" xlink:href="#e" y="91.158184"/><use x="57.6" xlink:href="#e" y="72.866976"/><use x="57.6" xlink:href="#e" y="63.579092"/><use x="57.6" xlink:href="#e" y="56.989233"/><use x="57.6" xlink:href="#e" y="51.877742"/><use x="57.6" xlink:href="#e" y="47.70135"/><use x="57.6" xlink:href="#e" y="44.17026"/><use x="57.6" xlink:href="#e" y="41.111491"/><use x="57.6" xlink:href="#e" y="38.413466"/></g><text font-family="DejaVu Sans" font-size="9" text-anchor="middle" transform="matrix(0 -1 1 0 -215.461719 262.618281)" x="23.578281" y="239.04">Cases per million inhabitants</text></g><path d="m503.497599 345.076702 166.102401-159.424229" style="fill:none;stroke:#ffa500;stroke-linecap:square;stroke-opacity:.01;stroke-width:4;clip-path:url(#a)"/><path d="m503.497599 336.558811 166.102401-144.659826" style="fill:none;stroke:#ffa500;stroke-linecap:square;stroke-opacity:.01;stroke-width:4;clip-path:url(#a)"/><path d="m503.497599 347.568985 166.102401-157.162879" style="fill:none;stroke:#ffa500;stroke-linecap:square;stroke-opacity:.01;stroke-width:4;clip-path:url(#a)"/><path d="m503.497599 335.822627 166.102401-105.284512" style="fill:none;stroke:#ffa500;stroke-linecap:square;stroke-opacity:.01;stroke-width:4;clip-path:url(#a)"/><path d="m503.497599 329.20714 166.102401-103.468986" style="fill:none;stroke:#ffa500;stroke-linecap:square;stroke-opacity:.01;stroke-width:4;clip-path:url(#a)"/><path d="m503.497599 337.615607 166.102401-137.713071" style="fill:none;stroke:#ffa500;stroke-linecap:square;stroke-opacity:.01;stroke-width:4;clip-path:url(#a)"/><path d="m503.497599 338.169994 166.102401-27.253828" style="fill:none;stroke:#ffa500;stroke-linecap:square;stroke-opacity:.01;stroke-width:4;clip-path:url(#a)"/><path d="m503.497599 345.724231 166.102401-157.419403" style="fill:none;stroke:#ffa500;stroke-linecap:square;stroke-opacity:.01;stroke-width:4;clip-path:url(#a)"/><path d="m503.497599 328.890298 166.102401-63.453004" style="fill:none;stroke:#ffa500;stroke-linecap:square;stroke-opacity:.01;stroke-width:4;clip-path:url(#a)"/><path d="m503.497599 352.516863 166.102401.085013" style="fill:none;stroke:#ffa500;stroke-linecap:square;stroke-opacity:.01;stroke-width:4;clip-path:url(#a)"/><path d="m503.497599 330.760504 166.102401-111.459491" style="fill:none;stroke:#ffa500;stroke-linecap:square;stroke-opacity:.01;stroke-width:4;clip-path:url(#a)"/><path d="m503.497599 337.599223 166.102401-31.224588" style="fill:none;stroke:#ffa500;stroke-linecap:square;stroke-opacity:.01;stroke-width:4;clip-path:url(#a)"/><path d="m503.497599 351.724839 166.102401-169.454183" style="fill:none;stroke:#ffa500;stroke-linecap:square;stroke-opacity:.01;stroke-width:4;clip-path:url(#a)"/><path d="m503.497599 329.608725 166.102401-122.752835" style="fill:none;stroke:#ffa500;stroke-linecap:square;stroke-opacity:.01;stroke-width:4;clip-path:url(#a)"/><path d="m503.497599 355.133015 166.102401-173.113021" style="fill:none;stroke:#ffa500;stroke-linecap:square;stroke-opacity:.01;stroke-width:4;clip-path:url(#a)"/><path d="m503.497599 334.994937 166.102401-43.073249" style="fill:none;stroke:#ffa500;stroke-linecap:square;stroke-opacity:.01;stroke-width:4;clip-path:url(#a)"/><path d="m503.497599 327.473972 166.102401-62.657611" style="fill:none;stroke:#ffa500;stroke-linecap:square;stroke-opacity:.01;stroke-width:4;clip-path:url(#a)"/><path d="m503.497599 348.727994 166.102401-144.194041" style="fill:none;stroke:#ffa500;stroke-linecap:square;stroke-opacity:.01;stroke-width:4;clip-path:url(#a)"/><path d="m503.497599 330.73426 166.102401-115.909647" style="fill:none;stroke:#ffa500;stroke-linecap:square;stroke-opacity:.01;stroke-width:4;clip-path:url(#a)"/><path d="m503.497599 326.80181 166.102401-87.630862" style="fill:none;stroke:#ffa500;stroke-linecap:square;stroke-opacity:.01;stroke-width:4;clip-path:url(#a)"/><path d="m503.497599 347.507164 166.102401-151.367378" style="fill:none;stroke:#ffa500;stroke-linecap:square;stroke-opacity:.01;stroke-width:4;clip-path:url(#a)"/><path d="m503.497599 338.807502 166.102401-138.90702" style="fill:none;stroke:#ffa500;stroke-linecap:square;stroke-opacity:.01;stroke-width:4;clip-path:url(#a)"/><path d="m503.497599 331.564512 166.102401-120.492447" style="fill:none;stroke:#ffa500;stroke-linecap:square;stroke-opacity:.01;stroke-width:4;clip-path:url(#a)"/><path d="m503.497599 328.052318 166.102401-72.97538" style="fill:none;stroke:#ffa500;stroke-linecap:square;stroke-opacity:.01;stroke-width:4;clip-path:url(#a)"/><path d="m503.497599 330.518853 166.102401-89.661317" style="fill:none;stroke:#ffa500;stroke-linecap:square;stroke-opacity:.01;stroke-width:4;clip-path:url(#a)"/><path d="m503.497599 335.969968 166.102401-37.501236" style="fill:none;stroke:#ffa500;stroke-linecap:square;stroke-opacity:.01;stroke-width:4;clip-path:url(#a)"/><path d="m503.497599 337.371034 166.102401-141.541121" style="fill:none;stroke:#ffa500;stroke-linecap:square;stroke-opacity:.01;stroke-width:4;clip-path:url(#a)"/><path d="m503.497599 344.957123 166.102401-151.735912" style="fill:none;stroke:#ffa500;stroke-linecap:square;stroke-opacity:.01;stroke-width:4;clip-path:url(#a)"/><path d="m503.497599 326.874734 166.102401-96.179979" style="fill:none;stroke:#ffa500;stroke-linecap:square;stroke-opacity:.01;stroke-width:4;clip-path:url(#a)"/><path d="m503.497599 330.728974 166.102401-102.451026" style="fill:none;stroke:#ffa500;stroke-linecap:square;stroke-opacity:.01;stroke-width:4;clip-path:url(#a)"/><path d="m503.497599 335.856223 166.102401-42.903833" style="fill:none;stroke:#ffa500;stroke-linecap:square;stroke-opacity:.01;stroke-width:4;clip-path:url(#a)"/><path d="m503.497599 336.788233 166.102401-33.450244" style="fill:none;stroke:#ffa500;stroke-linecap:square;stroke-opacity:.01;stroke-width:4;clip-path:url(#a)"/><path d="m503.497599 327.059272 166.102401-97.853476" style="fill:none;stroke:#ffa500;stroke-linecap:square;stroke-opacity:.01;stroke-width:4;clip-path:url(#a)"/><path d="m503.497599 340.530542 166.102401-123.131323" style="fill:none;stroke:#ffa500;stroke-linecap:square;stroke-opacity:.01;stroke-width:4;clip-path:url(#a)"/><path d="m503.497599 329.795404 166.102401-113.061612" style="fill:none;stroke:#ffa500;stroke-linecap:square;stroke-opacity:.01;stroke-width:4;clip-path:url(#a)"/><path d="m503.497599 330.926119 166.102401-121.19612" style="fill:none;stroke:#ffa500;stroke-linecap:square;stroke-opacity:.01;stroke-width:4;clip-path:url(#a)"/><path d="m503.497599 333.046766 166.102401-116.297502" style="fill:none;stroke:#ffa500;stroke-linecap:square;stroke-opacity:.01;stroke-width:4;clip-path:url(#a)"/><path d="m503.497599 329.55429 166.102401-70.166409" style="fill:none;stroke:#ffa500;stroke-linecap:square;stroke-opacity:.01;stroke-width:4;clip-path:url(#a)"/><path d="m503.497599 347.834958 166.102401-163.065965" style="fill:none;stroke:#ffa500;stroke-linecap:square;stroke-opacity:.01;stroke-width:4;clip-path:url(#a)"/><path d="m503.497599 339.20291 166.102401-140.945037" style="fill:none;stroke:#ffa500;stroke-linecap:square;stroke-opacity:.01;stroke-width:4;clip-path:url(#a)"/><path d="m503.497599 326.936163 166.102401-66.777542" style="fill:none;stroke:#ffa500;stroke-linecap:square;stroke-opacity:.01;stroke-width:4;clip-path:url(#a)"/><path d="m503.497599 325.151475 166.102401-78.144469" style="fill:none;stroke:#ffa500;stroke-linecap:square;stroke-opacity:.01;stroke-width:4;clip-path:url(#a)"/><path d="m503.497599 329.689277 166.102401-50.181232" style="fill:none;stroke:#ffa500;stroke-linecap:square;stroke-opacity:.01;stroke-width:4;clip-path:url(#a)"/><path d="m503.497599 352.96485 166.102401.836954" style="fill:none;stroke:#ffa500;stroke-linecap:square;stroke-opacity:.01;stroke-width:4;clip-path:url(#a)"/><path d="m503.497599 329.113304 166.102401-112.580564" style="fill:none;stroke:#ffa500;stroke-linecap:square;stroke-opacity:.01;stroke-width:4;clip-path:url(#a)"/><path d="m503.497599 325.844119 166.102401-74.606078" style="fill:none;stroke:#ffa500;stroke-linecap:square;stroke-opacity:.01;stroke-width:4;clip-path:url(#a)"/><path d="m503.497599 327.103964 166.102401-90.436383" style="fill:none;stroke:#ffa500;stroke-linecap:square;stroke-opacity:.01;stroke-width:4;clip-path:url(#a)"/><path d="m503.497599 340.154164 166.102401-26.454958" style="fill:none;stroke:#ffa500;stroke-linecap:square;stroke-opacity:.01;stroke-width:4;clip-path:url(#a)"/><path d="m503.497599 346.317154 166.102401-151.109382" style="fill:none;stroke:#ffa500;stroke-linecap:square;stroke-opacity:.01;stroke-width:4;clip-path:url(#a)"/><path d="m503.497599 340.150653 166.102401-141.044246" style="fill:none;stroke:#ffa500;stroke-linecap:square;stroke-opacity:.01;stroke-width:4;clip-path:url(#a)"/></g><g clip-path="url(#a)" fill="#00bfff" stroke="#000" stroke-linejoin="miter" stroke-width=".5"><use x="483.690489" xlink:href="#f" y="51841"/><use x="490.187222" xlink:href="#f" y="336.590564"/><use x="496.842411" xlink:href="#f" y="336.590564"/><use x="503.497599" xlink:href="#f" y="336.590564"/><use x="510.152787" xlink:href="#f" y="336.590564"/><use x="516.807975" xlink:href="#f" y="311.424939"/><use x="523.463163" xlink:href="#f" y="304.83508"/><use x="530.118351" xlink:href="#f" y="304.83508"/><use x="536.773539" xlink:href="#f" y="304.83508"/></g><g clip-path="url(#a)" fill="#3cb371" stroke="#000" stroke-linejoin="miter" stroke-width=".5"><use x="510.311289" xlink:href="#g" y="51841"/><use x="516.807975" xlink:href="#g" y="352.468307"/><use x="523.463163" xlink:href="#g" y="352.468307"/><use x="530.118351" xlink:href="#g" y="352.468307"/><use x="536.773539" xlink:href="#g" y="352.468307"/></g><g clip-path="url(#a)" fill="#ffa500" stroke="#000" stroke-linejoin="round" stroke-width=".5"><use x="483.690489" xlink:href="#h" y="51841"/><use x="490.187222" xlink:href="#h" y="336.590564"/><use x="496.842411" xlink:href="#h" y="336.590564"/><use x="503.497599" xlink:href="#h" y="336.590564"/><use x="510.152787" xlink:href="#h" y="336.590564"/><use x="516.807975" xlink:href="#h" y="320.712822"/><use x="523.463163" xlink:href="#h" y="311.424939"/><use x="530.118351" xlink:href="#h" y="311.424939"/><use x="536.773539" xlink:href="#h" y="311.424939"/></g><g clip-path="url(#a)" fill="#ff4500" stroke="#000" stroke-linejoin="miter" stroke-width=".5"><use x="510.311289" xlink:href="#i" y="51841"/><use x="516.807975" xlink:href="#i" y="352.468307"/><use x="523.463163" xlink:href="#i" y="352.468307"/><use x="530.118351" xlink:href="#i" y="352.468307"/><use x="536.773539" xlink:href="#i" y="352.468307"/></g><path d="m57.6 442.08v-406.08" fill="none" stroke="#000" stroke-linecap="square" stroke-linejoin="miter" stroke-width=".8"/><path d="m669.6 442.08v-406.08" fill="none" stroke="#000" stroke-linecap="square" stroke-linejoin="miter" stroke-width=".8"/><path d="m57.6 442.08h612" fill="none" stroke="#000" stroke-linecap="square" stroke-linejoin="miter" stroke-width=".8"/><path d="m57.6 36h612" fill="none" stroke="#000" stroke-linecap="square" stroke-linejoin="miter" stroke-width=".8"/><g stroke-linejoin="round"><path d="m69.84 105.6136h126.64375v-61.492h-126.64375z" fill="#fff" opacity=".7" stroke="#fff" stroke-linejoin="miter"/><g stroke-linejoin="round"><text transform="translate(69.84 50.20035)"><tspan font-family="DejaVu Sans" font-size="8" font-weight="bold" stroke-linejoin="round" x="0 6.695312 12.191406 16.136719 19.960938 25.65625 31.082031 35.027344 40.722656 43.507812 51.46875 56.867188 60.8125 63.554688 68.953125 74.648438 80.046875 82.832031 85.808594 90.570312 93.3125 98.710938 104.40625 110.132812" y="-.921875">Northern Mariana Islands</tspan></text><text font-family="DejaVu Sans" font-size="8" transform="translate(69.84 59.1586)">Total: 8</text><text font-family="DejaVu Sans" font-size="8" transform="translate(69.84 68.11685)">Active: 6.0 (+20%/day)</text><text font-family="DejaVu Sans" font-size="8" transform="translate(69.84 77.0751)">   → doubling in 4±2 days</text><text font-family="DejaVu Sans" font-size="8" transform="translate(69.84 86.03335)">Deaths: 1 (12.5%) (Δ:+0%/day)</text><text font-family="DejaVu Sans" font-size="8" transform="translate(69.84 94.9916)">   → Δ unchanging</text><text font-family="DejaVu Sans" font-size="8" transform="translate(69.84 103.94985)">Recovered: 1.0 (12.5%)</text></g></g><g stroke-linejoin="round"><path d="m320.024531 78.330938h343.275469q1.8 0 1.8-1.8v-34.230938q0-1.8-1.8-1.8h-343.275469q-1.8 0-1.8 1.8v34.230938q0 1.8 1.8 1.8z" fill="#fff" opacity=".8" stroke="#ccc" stroke-linejoin="miter"/><path d="m321.824531 47.788594h18" fill="none" stroke="#f00" stroke-dasharray="1.5 2.475" stroke-linejoin="round" stroke-width="1.5"/><text font-family="DejaVu Sans" font-size="9" stroke-linejoin="round" x="347.024531" y="50.938594">Critical cases ≈ ICU beds</text><use fill="#00bfff" stroke="#000" stroke-linejoin="miter" stroke-width=".5" x="330.824531" xlink:href="#f" y="58.748906"/><text font-family="DejaVu Sans" font-size="9" stroke-linejoin="round" x="347.024531" y="61.898906">Total</text><use fill="#3cb371" stroke="#000" stroke-linejoin="miter" stroke-width=".5" x="330.824531" xlink:href="#g" y="69.709219"/><g stroke-linejoin="round"><text font-family="DejaVu Sans" font-size="9" x="347.024531" y="72.859219">Recovered</text><use fill="#ffa500" stroke="#000" stroke-width=".5" x="487.043438" xlink:href="#h" y="47.788594"/><text font-family="DejaVu Sans" font-size="9" x="503.243438" y="50.938594">Active</text></g><use fill="#ff4500" stroke="#000" stroke-linejoin="miter" stroke-width=".5" x="487.043438" xlink:href="#i" y="58.748906"/><text font-family="DejaVu Sans" font-size="9" stroke-linejoin="round" x="503.243438" y="61.898906">Deaths</text><path d="m553.147031 50.938594h18v-6.3h-18z" fill="#ffa500" opacity=".5" stroke-linejoin="round"/><text font-family="DejaVu Sans" font-size="9" stroke-linejoin="round" x="578.347031" y="50.938594">Active (projected)</text><path d="m553.147031 61.898906h18v-6.3h-18z" opacity=".5" stroke="#000" stroke-linejoin="miter"/><text font-family="DejaVu Sans" font-size="9" stroke-linejoin="round" x="578.347031" y="61.898906">Active growth rate</text></g></g><g><g stroke-linejoin="round"><path d="m57.6 645.12h612v-203.04h-612z" fill="#fff"/><g clip-path="url(#b)"><path d="m516.807975-178.93391v-57.453364l6.655188-56.721751 6.655188 32.298744 6.655188 34.534939v48.617291l-6.655188-32.265288-6.655188-29.135366z" fill-opacity=".5" stroke="#000" stroke-linejoin="round" stroke-opacity=".5" transform="translate(0 720)"/></g><g><g><path clip-path="url(#b)" d="m117.496692 645.12v-203.04" fill="none" stroke="#b0b0b0" stroke-dasharray=".8 1.32" stroke-width=".8"/><use stroke="#000" stroke-width=".8" x="117.496692" xlink:href="#c" y="645.12"/><text font-family="DejaVu Sans" font-size="9" text-anchor="middle" x="117.496692" y="658.958594">Feb</text></g><g><path clip-path="url(#b)" d="m164.083009 645.12v-203.04" fill="none" stroke="#b0b0b0" stroke-dasharray=".8 1.32" stroke-width=".8"/><use stroke="#000" stroke-width=".8" x="164.083009" xlink:href="#c" y="645.12"/><text font-family="DejaVu Sans" font-size="9" text-anchor="middle" x="164.083009" y="658.958594">08</text></g><g><path clip-path="url(#b)" d="m210.669325 645.12v-203.04" fill="none" stroke="#b0b0b0" stroke-dasharray=".8 1.32" stroke-width=".8"/><use stroke="#000" stroke-width=".8" x="210.669325" xlink:href="#c" y="645.12"/><text font-family="DejaVu Sans" font-size="9" text-anchor="middle" x="210.669325" y="658.958594">15</text></g><g><path clip-path="url(#b)" d="m257.255641 645.12v-203.04" fill="none" stroke="#b0b0b0" stroke-dasharray=".8 1.32" stroke-width=".8"/><use stroke="#000" stroke-width=".8" x="257.255641" xlink:href="#c" y="645.12"/><text font-family="DejaVu Sans" font-size="9" text-anchor="middle" x="257.255641" y="658.958594">22</text></g><g><path clip-path="url(#b)" d="m310.497145 645.12v-203.04" fill="none" stroke="#b0b0b0" stroke-dasharray=".8 1.32" stroke-width=".8"/><use stroke="#000" stroke-width=".8" x="310.497145" xlink:href="#c" y="645.12"/><text font-family="DejaVu Sans" font-size="9" text-anchor="middle" x="310.497145" y="658.958594">Mar</text></g><g><path clip-path="url(#b)" d="m357.083462 645.12v-203.04" fill="none" stroke="#b0b0b0" stroke-dasharray=".8 1.32" stroke-width=".8"/><use stroke="#000" stroke-width=".8" x="357.083462" xlink:href="#c" y="645.12"/><text font-family="DejaVu Sans" font-size="9" text-anchor="middle" x="357.083462" y="658.958594">08</text></g><g><path clip-path="url(#b)" d="m403.669778 645.12v-203.04" fill="none" stroke="#b0b0b0" stroke-dasharray=".8 1.32" stroke-width=".8"/><use stroke="#000" stroke-width=".8" x="403.669778" xlink:href="#c" y="645.12"/><text font-family="DejaVu Sans" font-size="9" text-anchor="middle" x="403.669778" y="658.958594">15</text></g><g><path clip-path="url(#b)" d="m450.256094 645.12v-203.04" fill="none" stroke="#b0b0b0" stroke-dasharray=".8 1.32" stroke-width=".8"/><use stroke="#000" stroke-width=".8" x="450.256094" xlink:href="#c" y="645.12"/><text font-family="DejaVu Sans" font-size="9" text-anchor="middle" x="450.256094" y="658.958594">22</text></g><g><path clip-path="url(#b)" d="m516.807975 645.12v-203.04" fill="none" stroke="#b0b0b0" stroke-dasharray=".8 1.32" stroke-width=".8"/><use stroke="#000" stroke-width=".8" x="516.807975" xlink:href="#c" y="645.12"/><text font-family="DejaVu Sans" font-size="9" text-anchor="middle" x="516.807975" y="658.958594">Apr</text></g><g><path clip-path="url(#b)" d="m563.394291 645.12v-203.04" fill="none" stroke="#b0b0b0" stroke-dasharray=".8 1.32" stroke-width=".8"/><use stroke="#000" stroke-width=".8" x="563.394291" xlink:href="#c" y="645.12"/><text font-family="DejaVu Sans" font-size="9" text-anchor="middle" x="563.394291" y="658.958594">08</text></g><g><path clip-path="url(#b)" d="m609.980607 645.12v-203.04" fill="none" stroke="#b0b0b0" stroke-dasharray=".8 1.32" stroke-width=".8"/><use stroke="#000" stroke-width=".8" x="609.980607" xlink:href="#c" y="645.12"/><text font-family="DejaVu Sans" font-size="9" text-anchor="middle" x="609.980607" y="658.958594">15</text></g><g><path clip-path="url(#b)" d="m656.566923 645.12v-203.04" fill="none" stroke="#b0b0b0" stroke-dasharray=".8 1.32" stroke-width=".8"/><use stroke="#000" stroke-width=".8" x="656.566923" xlink:href="#c" y="645.12"/><text font-family="DejaVu Sans" font-size="9" text-anchor="middle" x="656.566923" y="658.958594">22</text></g></g><g><g><path clip-path="url(#b)" d="m57.6 619.74h612" fill="none" stroke="#b0b0b0" stroke-dasharray=".8 1.32" stroke-width=".8"/><use stroke="#000" stroke-width=".8" x="57.6" xlink:href="#d" y="619.74"/><text font-family="DejaVu Sans" font-size="9" text-anchor="end" x="50.6" y="623.159297">−20</text></g><g><path clip-path="url(#b)" d="m57.6 594.36h612" fill="none" stroke="#b0b0b0" stroke-dasharray=".8 1.32" stroke-width=".8"/><use stroke="#000" stroke-width=".8" x="57.6" xlink:href="#d" y="594.36"/><text font-family="DejaVu Sans" font-size="9" text-anchor="end" x="50.6" y="597.779297">−10</text></g><g><path clip-path="url(#b)" d="m57.6 568.98h612" fill="none" stroke="#b0b0b0" stroke-dasharray=".8 1.32" stroke-width=".8"/><use stroke="#000" stroke-width=".8" x="57.6" xlink:href="#d" y="568.98"/><text font-family="DejaVu Sans" font-size="9" text-anchor="end" x="50.6" y="572.399297">0</text></g><g><path clip-path="url(#b)" d="m57.6 543.6h612" fill="none" stroke="#b0b0b0" stroke-dasharray=".8 1.32" stroke-width=".8"/><use stroke="#000" stroke-width=".8" x="57.6" xlink:href="#d" y="543.6"/><text font-family="DejaVu Sans" font-size="9" text-anchor="end" x="50.6" y="547.019297">10</text></g><g><path clip-path="url(#b)" d="m57.6 518.22h612" fill="none" stroke="#b0b0b0" stroke-dasharray=".8 1.32" stroke-width=".8"/><use stroke="#000" stroke-width=".8" x="57.6" xlink:href="#d" y="518.22"/><text font-family="DejaVu Sans" font-size="9" text-anchor="end" x="50.6" y="521.639297">20</text></g><g><path clip-path="url(#b)" d="m57.6 492.84h612" fill="none" stroke="#b0b0b0" stroke-dasharray=".8 1.32" stroke-width=".8"/><use stroke="#000" stroke-width=".8" x="57.6" xlink:href="#d" y="492.84"/><text font-family="DejaVu Sans" font-size="9" text-anchor="end" x="50.6" y="496.259297">30</text></g><g><path clip-path="url(#b)" d="m57.6 467.46h612" fill="none" stroke="#b0b0b0" stroke-dasharray=".8 1.32" stroke-width=".8"/><use stroke="#000" stroke-width=".8" x="57.6" xlink:href="#d" y="467.46"/><text font-family="DejaVu Sans" font-size="9" text-anchor="end" x="50.6" y="470.879297">40</text></g><text font-family="DejaVu Sans" font-size="9" text-anchor="middle" transform="matrix(0 -1 1 0 -517.865937 569.334063)" x="25.734063" y="543.6">Growth rate (%/day)</text></g><path clip-path="url(#b)" d="m57.6 568.98h612" fill="none" stroke="#000" stroke-linecap="square" stroke-width="1.5"/></g><path d="m57.6 645.12v-203.04" fill="none" stroke="#000" stroke-linecap="square" stroke-linejoin="miter" stroke-width=".8"/><path d="m669.6 645.12v-203.04" fill="none" stroke="#000" stroke-linecap="square" stroke-linejoin="miter" stroke-width=".8"/><path d="m57.6 645.12h612" fill="none" stroke="#000" stroke-linecap="square" stroke-linejoin="miter" stroke-width=".8"/><path d="m57.6 442.08h612" fill="none" stroke="#000" stroke-linecap="square" stroke-linejoin="miter" stroke-width=".8"/></g><g><g stroke-linejoin="round"><g><use stroke="#000" stroke-width=".8" x="669.6" xlink:href="#j" y="619.74"/><text font-family="DejaVu Sans" font-size="9" x="676.6" y="623.159297">-3.1</text></g><g><use stroke="#000" stroke-width=".8" x="669.6" xlink:href="#j" y="594.36"/><text font-family="DejaVu Sans" font-size="9" x="676.6" y="597.779297">-6.6</text></g><g><use stroke="#000" stroke-width=".8" x="669.6" xlink:href="#j" y="568.98"/><text font-family="DejaVu Sans" font-size="9" x="676.6" y="572.399297">∞</text></g><g><use stroke="#000" stroke-width=".8" x="669.6" xlink:href="#j" y="543.6"/><text font-family="DejaVu Sans" font-size="9" x="676.6" y="547.019297">7.3</text></g><g><use stroke="#000" stroke-width=".8" x="669.6" xlink:href="#j" y="518.22"/><text font-family="DejaVu Sans" font-size="9" x="676.6" y="521.639297">3.8</text></g><g><use stroke="#000" stroke-width=".8" x="669.6" xlink:href="#j" y="492.84"/><text font-family="DejaVu Sans" font-size="9" x="676.6" y="496.259297">2.6</text></g><g><use stroke="#000" stroke-width=".8" x="669.6" xlink:href="#j" y="467.46"/><text font-family="DejaVu Sans" font-size="9" x="676.6" y="470.879297">2.1</text></g><text font-family="DejaVu Sans" font-size="9" text-anchor="middle" transform="matrix(0 -1 1 0 161.398438 1248.598438)" x="704.998438" y="543.6">Doubling time (days)</text></g><g fill="none" stroke="#000" stroke-linecap="square" stroke-linejoin="miter" stroke-width=".8"><path d="m57.6 645.12v-203.04"/><path d="m669.6 645.12v-203.04"/><path d="m57.6 645.12h612"/><path d="m57.6 442.08h612"/></g></g><text font-family="DejaVu Sans" font-size="12" text-anchor="middle" x="360" y="23.518125">Northern Mariana Islands per-capita COVID-19 cases and exponential projection</text></g></svg>