<svg height="720pt" stroke-linejoin="round" viewBox="0 0 720 720" width="720pt" xmlns="http://www.w3.org/2000/svg" xmlns:xlink="http://www.w3.org/1999/xlink"><defs stroke-linejoin="round"><clipPath id="a" stroke-linejoin="round"><path d="m57.6 36h612v406.08h-612z"/></clipPath><clipPath id="b" stroke-linejoin="round"><path d="m57.6 442.08h612v203.04h-612z"/></clipPath><path id="c" d="m0 0v3.5" stroke="#000" stroke-linejoin="round" stroke-width=".8"/><path id="d" d="m0 0h-3.5" stroke="#000" stroke-linejoin="round" stroke-width=".8"/><path id="e" d="m0 0h-2" stroke="#000" stroke-linejoin="round" stroke-width=".6"/><path id="f" d="m-0 2.828427 2.828427-2.828427-2.828427-2.828427-2.828427 2.828427z" stroke="#000" stroke-linejoin="miter" stroke-width=".5"/><path id="g" d="m-2.5 2.5h5v-5h-5z" stroke="#000" stroke-linejoin="miter" stroke-width=".5"/><path id="h" d="m0 2.5c.663008 0 1.29895-.263416 1.767767-.732233s.732233-1.104759.732233-1.767767-.263416-1.29895-.732233-1.767767-1.104759-.732233-1.767767-.732233-1.29895.263416-1.767767.732233-.732233 1.104759-.732233 1.767767.263416 1.29895.732233 1.767767 1.104759.732233 1.767767.732233z" stroke="#000" stroke-linejoin="round" stroke-width=".5"/><path id="i" d="m0 0h3.5" stroke="#000" stroke-linejoin="round" stroke-width=".8"/></defs><g stroke-linejoin="round"><path d="m0 720h720v-720h-720z" fill="#fff"/><g><g stroke-linejoin="round"><path d="m57.6 442.08h612v-406.08h-612z" fill="#fff"/><path clip-path="url(#a)" d="m50.944812 653.058871v15.877742h6.655188v-15.877742z" fill="#ffa500" fill-opacity=".5"/><g stroke-width=".8"><g><path clip-path="url(#a)" d="m117.496692 442.08v-406.08" fill="none" stroke="#b0b0b0" stroke-dasharray=".8 1.32"/><use stroke="#000" x="117.496692" xlink:href="#c" y="442.08"/></g><g><path clip-path="url(#a)" d="m164.083009 442.08v-406.08" fill="none" stroke="#b0b0b0" stroke-dasharray=".8 1.32"/><use stroke="#000" x="164.083009" xlink:href="#c" y="442.08"/></g><g><path clip-path="url(#a)" d="m210.669325 442.08v-406.08" fill="none" stroke="#b0b0b0" stroke-dasharray=".8 1.32"/><use stroke="#000" x="210.669325" xlink:href="#c" y="442.08"/></g><g><path clip-path="url(#a)" d="m257.255641 442.08v-406.08" fill="none" stroke="#b0b0b0" stroke-dasharray=".8 1.32"/><use stroke="#000" x="257.255641" xlink:href="#c" y="442.08"/></g><g><path clip-path="url(#a)" d="m310.497145 442.08v-406.08" fill="none" stroke="#b0b0b0" stroke-dasharray=".8 1.32"/><use stroke="#000" x="310.497145" xlink:href="#c" y="442.08"/></g><g><path clip-path="url(#a)" d="m357.083462 442.08v-406.08" fill="none" stroke="#b0b0b0" stroke-dasharray=".8 1.32"/><use stroke="#000" x="357.083462" xlink:href="#c" y="442.08"/></g><g><path clip-path="url(#a)" d="m403.669778 442.08v-406.08" fill="none" stroke="#b0b0b0" stroke-dasharray=".8 1.32"/><use stroke="#000" x="403.669778" xlink:href="#c" y="442.08"/></g><g><path clip-path="url(#a)" d="m450.256094 442.08v-406.08" fill="none" stroke="#b0b0b0" stroke-dasharray=".8 1.32"/><use stroke="#000" x="450.256094" xlink:href="#c" y="442.08"/></g><g><path clip-path="url(#a)" d="m516.807975 442.08v-406.08" fill="none" stroke="#b0b0b0" stroke-dasharray=".8 1.32"/><use stroke="#000" x="516.807975" xlink:href="#c" y="442.08"/></g><g><path clip-path="url(#a)" d="m563.394291 442.08v-406.08" fill="none" stroke="#b0b0b0" stroke-dasharray=".8 1.32"/><use stroke="#000" x="563.394291" xlink:href="#c" y="442.08"/></g><g><path clip-path="url(#a)" d="m609.980607 442.08v-406.08" fill="none" stroke="#b0b0b0" stroke-dasharray=".8 1.32"/><use stroke="#000" x="609.980607" xlink:href="#c" y="442.08"/></g><g><path clip-path="url(#a)" d="m656.566923 442.08v-406.08" fill="none" stroke="#b0b0b0" stroke-dasharray=".8 1.32"/><use stroke="#000" x="656.566923" xlink:href="#c" y="442.08"/></g></g><g><g><path clip-path="url(#a)" d="m57.6 405.213024h612" fill="none" stroke="#b0b0b0" stroke-dasharray=".8 1.32" stroke-width=".8"/><use stroke="#000" stroke-width=".8" x="57.6" xlink:href="#d" y="405.213024"/><text transform="translate(29.45 408.632321)"><tspan font-family="DejaVu Sans" font-size="9" stroke-linejoin="round" x="0 5.726074" y="-.960938">10</tspan> <tspan font-family="DejaVu Sans" font-size="6.3" stroke-linejoin="round" x="11.538281 16.816992" y="-4.40625">−1</tspan></text></g><g><path clip-path="url(#a)" d="m57.6 352.468307h612" fill="none" stroke="#b0b0b0" stroke-dasharray=".8 1.32" stroke-width=".8"/><use stroke="#000" stroke-width=".8" x="57.6" xlink:href="#d" y="352.468307"/><text transform="translate(34.76 355.887603)"><tspan font-family="DejaVu Sans" font-size="9" stroke-linejoin="round" x="0 5.726074" y="-.873438">10</tspan> <tspan font-family="DejaVu Sans" font-size="6.3" stroke-linejoin="round" x="11.538281" y="-4.31875">0</tspan></text></g><g><path clip-path="url(#a)" d="m57.6 299.723589h612" fill="none" stroke="#b0b0b0" stroke-dasharray=".8 1.32" stroke-width=".8"/><use stroke="#000" stroke-width=".8" x="57.6" xlink:href="#d" y="299.723589"/><text transform="translate(34.76 303.142886)"><tspan font-family="DejaVu Sans" font-size="9" stroke-linejoin="round" x="0 5.726074" y="-.960938">10</tspan> <tspan font-family="DejaVu Sans" font-size="6.3" stroke-linejoin="round" x="11.538281" y="-4.40625">1</tspan></text></g><g><path clip-path="url(#a)" d="m57.6 246.978871h612" fill="none" stroke="#b0b0b0" stroke-dasharray=".8 1.32" stroke-width=".8"/><use stroke="#000" stroke-width=".8" x="57.6" xlink:href="#d" y="246.978871"/><text transform="translate(34.76 250.398168)"><tspan font-family="DejaVu Sans" font-size="9" stroke-linejoin="round" x="0 5.726074" y="-.873438">10</tspan> <tspan font-family="DejaVu Sans" font-size="6.3" stroke-linejoin="round" x="11.538281" y="-4.31875">2</tspan></text></g><g><path clip-path="url(#a)" d="m57.6 194.234153h612" fill="none" stroke="#b0b0b0" stroke-dasharray=".8 1.32" stroke-width=".8"/><use stroke="#000" stroke-width=".8" x="57.6" xlink:href="#d" y="194.234153"/><text transform="translate(34.76 197.65345)"><tspan font-family="DejaVu Sans" font-size="9" stroke-linejoin="round" x="0 5.726074" y="-.873438">10</tspan> <tspan font-family="DejaVu Sans" font-size="6.3" stroke-linejoin="round" x="11.538281" y="-4.31875">3</tspan></text></g><g><path clip-path="url(#a)" d="m57.6 141.489436h612" fill="none" stroke="#b0b0b0" stroke-dasharray=".8 1.32" stroke-width=".8"/><use stroke="#000" stroke-width=".8" x="57.6" xlink:href="#d" y="141.489436"/><text transform="translate(34.76 144.908732)"><tspan font-family="DejaVu Sans" font-size="9" stroke-linejoin="round" x="0 5.726074" y="-.960938">10</tspan> <tspan font-family="DejaVu Sans" font-size="6.3" stroke-linejoin="round" x="11.538281" y="-4.40625">4</tspan></text></g><g><path clip-path="url(#a)" d="m57.6 88.744718h612" fill="none" stroke="#b0b0b0" stroke-dasharray=".8 1.32" stroke-width=".8"/><use stroke="#000" stroke-width=".8" x="57.6" xlink:href="#d" y="88.744718"/><text transform="translate(34.76 92.164015)"><tspan font-family="DejaVu Sans" font-size="9" stroke-linejoin="round" x="0 5.726074" y="-.960938">10</tspan> <tspan font-family="DejaVu Sans" font-size="6.3" stroke-linejoin="round" x="11.538281" y="-4.40625">5</tspan></text></g><g><path clip-path="url(#a)" d="m57.6 36h612" fill="none" stroke="#b0b0b0" stroke-dasharray=".8 1.32" stroke-width=".8"/><use stroke="#000" stroke-width=".8" x="57.6" xlink:href="#d" y="36"/><text transform="translate(34.76 39.419297)"><tspan font-family="DejaVu Sans" font-size="9" stroke-linejoin="round" x="0 5.726074" y="-.873438">10</tspan> <tspan font-family="DejaVu Sans" font-size="6.3" stroke-linejoin="round" x="11.538281" y="-4.31875">6</tspan></text></g><g stroke="#000" stroke-width=".6"><use x="57.6" xlink:href="#e" y="442.08"/><use x="57.6" xlink:href="#e" y="432.792116"/><use x="57.6" xlink:href="#e" y="426.202258"/><use x="57.6" xlink:href="#e" y="421.090767"/><use x="57.6" xlink:href="#e" y="416.914374"/><use x="57.6" xlink:href="#e" y="413.383285"/><use x="57.6" xlink:href="#e" y="410.324516"/><use x="57.6" xlink:href="#e" y="407.62649"/><use x="57.6" xlink:href="#e" y="389.335282"/><use x="57.6" xlink:href="#e" y="380.047398"/><use x="57.6" xlink:href="#e" y="373.45754"/><use x="57.6" xlink:href="#e" y="368.346049"/><use x="57.6" xlink:href="#e" y="364.169656"/><use x="57.6" xlink:href="#e" y="360.638567"/><use x="57.6" xlink:href="#e" y="357.579798"/><use x="57.6" xlink:href="#e" y="354.881773"/><use x="57.6" xlink:href="#e" y="336.590564"/><use x="57.6" xlink:href="#e" y="327.302681"/><use x="57.6" xlink:href="#e" y="320.712822"/><use x="57.6" xlink:href="#e" y="315.601331"/><use x="57.6" xlink:href="#e" y="311.424939"/><use x="57.6" xlink:href="#e" y="307.893849"/><use x="57.6" xlink:href="#e" y="304.83508"/><use x="57.6" xlink:href="#e" y="302.137055"/><use x="57.6" xlink:href="#e" y="283.845847"/><use x="57.6" xlink:href="#e" y="274.557963"/><use x="57.6" xlink:href="#e" y="267.968105"/><use x="57.6" xlink:href="#e" y="262.856613"/><use x="57.6" xlink:href="#e" y="258.680221"/><use x="57.6" xlink:href="#e" y="255.149131"/><use x="57.6" xlink:href="#e" y="252.090362"/><use x="57.6" xlink:href="#e" y="249.392337"/><use x="57.6" xlink:href="#e" y="231.101129"/><use x="57.6" xlink:href="#e" y="221.813245"/><use x="57.6" xlink:href="#e" y="215.223387"/><use x="57.6" xlink:href="#e" y="210.111895"/><use x="57.6" xlink:href="#e" y="205.935503"/><use x="57.6" xlink:href="#e" y="202.404413"/><use x="57.6" xlink:href="#e" y="199.345645"/><use x="57.6" xlink:href="#e" y="196.647619"/><use x="57.6" xlink:href="#e" y="178.356411"/><use x="57.6" xlink:href="#e" y="169.068527"/><use x="57.6" xlink:href="#e" y="162.478669"/><use x="57.6" xlink:href="#e" y="157.367178"/><use x="57.6" xlink:href="#e" y="153.190785"/><use x="57.6" xlink:href="#e" y="149.659696"/><use x="57.6" xlink:href="#e" y="146.600927"/><use x="57.6" xlink:href="#e" y="143.902901"/><use x="57.6" xlink:href="#e" y="125.611693"/><use x="57.6" xlink:href="#e" y="116.32381"/><use x="57.6" xlink:href="#e" y="109.733951"/><use x="57.6" xlink:href="#e" y="104.62246"/><use x="57.6" xlink:href="#e" y="100.446067"/><use x="57.6" xlink:href="#e" y="96.914978"/><use x="57.6" xlink:href="#e" y="93.856209"/><use x="57.6" xlink:href="#e" y="91.158184"/><use x="57.6" xlink:href="#e" y="72.866976"/><use x="57.6" xlink:href="#e" y="63.579092"/><use x="57.6" xlink:href="#e" y="56.989233"/><use x="57.6" xlink:href="#e" y="51.877742"/><use x="57.6" xlink:href="#e" y="47.70135"/><use x="57.6" xlink:href="#e" y="44.17026"/><use x="57.6" xlink:href="#e" y="41.111491"/><use x="57.6" xlink:href="#e" y="38.413466"/></g><text font-family="DejaVu Sans" font-size="9" text-anchor="middle" transform="matrix(0 -1 1 0 -215.461719 262.618281)" x="23.578281" y="239.04">Cases per million inhabitants</text></g><path d="m503.497599 277.447745 166.102401-42.493142" style="fill:none;stroke:#ffa500;stroke-linecap:square;stroke-opacity:.01;stroke-width:4;clip-path:url(#a)"/><path d="m503.497599 277.320363 166.102401-45.835246" style="fill:none;stroke:#ffa500;stroke-linecap:square;stroke-opacity:.01;stroke-width:4;clip-path:url(#a)"/><path d="m503.497599 277.488306 166.102401-48.563524" style="fill:none;stroke:#ffa500;stroke-linecap:square;stroke-opacity:.01;stroke-width:4;clip-path:url(#a)"/><path d="m503.497599 283.792447 166.102401-31.451628" style="fill:none;stroke:#ffa500;stroke-linecap:square;stroke-opacity:.01;stroke-width:4;clip-path:url(#a)"/><path d="m503.497599 277.88338 166.102401-45.757423" style="fill:none;stroke:#ffa500;stroke-linecap:square;stroke-opacity:.01;stroke-width:4;clip-path:url(#a)"/><path d="m503.497599 276.904349 166.102401-43.640011" style="fill:none;stroke:#ffa500;stroke-linecap:square;stroke-opacity:.01;stroke-width:4;clip-path:url(#a)"/><path d="m503.497599 277.418697 166.102401-49.27108" style="fill:none;stroke:#ffa500;stroke-linecap:square;stroke-opacity:.01;stroke-width:4;clip-path:url(#a)"/><path d="m503.497599 278.19806 166.102401-44.804483" style="fill:none;stroke:#ffa500;stroke-linecap:square;stroke-opacity:.01;stroke-width:4;clip-path:url(#a)"/><path d="m503.497599 280.749626 166.102401-53.393027" style="fill:none;stroke:#ffa500;stroke-linecap:square;stroke-opacity:.01;stroke-width:4;clip-path:url(#a)"/><path d="m503.497599 278.118548 166.102401-46.975486" style="fill:none;stroke:#ffa500;stroke-linecap:square;stroke-opacity:.01;stroke-width:4;clip-path:url(#a)"/><path d="m503.497599 280.305089 166.102401-35.533552" style="fill:none;stroke:#ffa500;stroke-linecap:square;stroke-opacity:.01;stroke-width:4;clip-path:url(#a)"/><path d="m503.497599 278.507744 166.102401-40.657052" style="fill:none;stroke:#ffa500;stroke-linecap:square;stroke-opacity:.01;stroke-width:4;clip-path:url(#a)"/><path d="m503.497599 291.862168 166.102401-63.969911" style="fill:none;stroke:#ffa500;stroke-linecap:square;stroke-opacity:.01;stroke-width:4;clip-path:url(#a)"/><path d="m503.497599 279.484129 166.102401-50.04736" style="fill:none;stroke:#ffa500;stroke-linecap:square;stroke-opacity:.01;stroke-width:4;clip-path:url(#a)"/><path d="m503.497599 278.10452 166.102401-44.153231" style="fill:none;stroke:#ffa500;stroke-linecap:square;stroke-opacity:.01;stroke-width:4;clip-path:url(#a)"/><path d="m503.497599 279.25826 166.102401-51.74716" style="fill:none;stroke:#ffa500;stroke-linecap:square;stroke-opacity:.01;stroke-width:4;clip-path:url(#a)"/><path d="m503.497599 278.43802 166.102401-48.815264" style="fill:none;stroke:#ffa500;stroke-linecap:square;stroke-opacity:.01;stroke-width:4;clip-path:url(#a)"/><path d="m503.497599 292.490113 166.102401-64.192979" style="fill:none;stroke:#ffa500;stroke-linecap:square;stroke-opacity:.01;stroke-width:4;clip-path:url(#a)"/><path d="m503.497599 276.810909 166.102401-44.661007" style="fill:none;stroke:#ffa500;stroke-linecap:square;stroke-opacity:.01;stroke-width:4;clip-path:url(#a)"/><path d="m503.497599 288.212468 166.102401-27.581131" style="fill:none;stroke:#ffa500;stroke-linecap:square;stroke-opacity:.01;stroke-width:4;clip-path:url(#a)"/><path d="m503.497599 277.767513 166.102401-49.159337" style="fill:none;stroke:#ffa500;stroke-linecap:square;stroke-opacity:.01;stroke-width:4;clip-path:url(#a)"/><path d="m503.497599 281.076929 166.102401-53.907706" style="fill:none;stroke:#ffa500;stroke-linecap:square;stroke-opacity:.01;stroke-width:4;clip-path:url(#a)"/><path d="m503.497599 278.735106 166.102401-49.19144" style="fill:none;stroke:#ffa500;stroke-linecap:square;stroke-opacity:.01;stroke-width:4;clip-path:url(#a)"/><path d="m503.497599 279.186209 166.102401-38.322104" style="fill:none;stroke:#ffa500;stroke-linecap:square;stroke-opacity:.01;stroke-width:4;clip-path:url(#a)"/><path d="m503.497599 278.643146 166.102401-38.73764" style="fill:none;stroke:#ffa500;stroke-linecap:square;stroke-opacity:.01;stroke-width:4;clip-path:url(#a)"/><path d="m503.497599 281.779513 166.102401-34.350614" style="fill:none;stroke:#ffa500;stroke-linecap:square;stroke-opacity:.01;stroke-width:4;clip-path:url(#a)"/><path d="m503.497599 281.125325 166.102401-53.603839" style="fill:none;stroke:#ffa500;stroke-linecap:square;stroke-opacity:.01;stroke-width:4;clip-path:url(#a)"/><path d="m503.497599 277.251703 166.102401-45.469064" style="fill:none;stroke:#ffa500;stroke-linecap:square;stroke-opacity:.01;stroke-width:4;clip-path:url(#a)"/><path d="m503.497599 278.401011 166.102401-39.76597" style="fill:none;stroke:#ffa500;stroke-linecap:square;stroke-opacity:.01;stroke-width:4;clip-path:url(#a)"/><path d="m503.497599 278.877527 166.102401-37.244613" style="fill:none;stroke:#ffa500;stroke-linecap:square;stroke-opacity:.01;stroke-width:4;clip-path:url(#a)"/><path d="m503.497599 277.839954 166.102401-44.285864" style="fill:none;stroke:#ffa500;stroke-linecap:square;stroke-opacity:.01;stroke-width:4;clip-path:url(#a)"/><path d="m503.497599 281.723462 166.102401-55.81249" style="fill:none;stroke:#ffa500;stroke-linecap:square;stroke-opacity:.01;stroke-width:4;clip-path:url(#a)"/><path d="m503.497599 277.756449 166.102401-46.479531" style="fill:none;stroke:#ffa500;stroke-linecap:square;stroke-opacity:.01;stroke-width:4;clip-path:url(#a)"/><path d="m503.497599 280.104793 166.102401-51.785356" style="fill:none;stroke:#ffa500;stroke-linecap:square;stroke-opacity:.01;stroke-width:4;clip-path:url(#a)"/><path d="m503.497599 294.7242 166.102401-65.201989" style="fill:none;stroke:#ffa500;stroke-linecap:square;stroke-opacity:.01;stroke-width:4;clip-path:url(#a)"/><path d="m503.497599 278.250831 166.102401-46.683861" style="fill:none;stroke:#ffa500;stroke-linecap:square;stroke-opacity:.01;stroke-width:4;clip-path:url(#a)"/><path d="m503.497599 278.384741 166.102401-46.182158" style="fill:none;stroke:#ffa500;stroke-linecap:square;stroke-opacity:.01;stroke-width:4;clip-path:url(#a)"/><path d="m503.497599 295.394522 166.102401-65.429378" style="fill:none;stroke:#ffa500;stroke-linecap:square;stroke-opacity:.01;stroke-width:4;clip-path:url(#a)"/><path d="m503.497599 282.872781 166.102401-32.445376" style="fill:none;stroke:#ffa500;stroke-linecap:square;stroke-opacity:.01;stroke-width:4;clip-path:url(#a)"/><path d="m503.497599 287.910884 166.102401-61.054424" style="fill:none;stroke:#ffa500;stroke-linecap:square;stroke-opacity:.01;stroke-width:4;clip-path:url(#a)"/><path d="m503.497599 279.903563 166.102401-53.021823" style="fill:none;stroke:#ffa500;stroke-linecap:square;stroke-opacity:.01;stroke-width:4;clip-path:url(#a)"/><path d="m503.497599 278.827966 166.102401-48.567777" style="fill:none;stroke:#ffa500;stroke-linecap:square;stroke-opacity:.01;stroke-width:4;clip-path:url(#a)"/><path d="m503.497599 278.664895 166.102401-40.173416" style="fill:none;stroke:#ffa500;stroke-linecap:square;stroke-opacity:.01;stroke-width:4;clip-path:url(#a)"/><path d="m503.497599 278.220664 166.102401-49.537924" style="fill:none;stroke:#ffa500;stroke-linecap:square;stroke-opacity:.01;stroke-width:4;clip-path:url(#a)"/><path d="m503.497599 284.425744 166.102401-31.161534" style="fill:none;stroke:#ffa500;stroke-linecap:square;stroke-opacity:.01;stroke-width:4;clip-path:url(#a)"/><path d="m503.497599 277.597417 166.102401-45.505556" style="fill:none;stroke:#ffa500;stroke-linecap:square;stroke-opacity:.01;stroke-width:4;clip-path:url(#a)"/><path d="m503.497599 285.930294 166.102401-29.008249" style="fill:none;stroke:#ffa500;stroke-linecap:square;stroke-opacity:.01;stroke-width:4;clip-path:url(#a)"/><path d="m503.497599 284.43605 166.102401-57.452625" style="fill:none;stroke:#ffa500;stroke-linecap:square;stroke-opacity:.01;stroke-width:4;clip-path:url(#a)"/><path d="m503.497599 280.513698 166.102401-35.099399" style="fill:none;stroke:#ffa500;stroke-linecap:square;stroke-opacity:.01;stroke-width:4;clip-path:url(#a)"/><path d="m503.497599 277.942498 166.102401-46.705639" style="fill:none;stroke:#ffa500;stroke-linecap:square;stroke-opacity:.01;stroke-width:4;clip-path:url(#a)"/></g><g clip-path="url(#a)" fill="#00bfff" stroke="#000" stroke-linejoin="miter" stroke-width=".5"><use x="390.517904" xlink:href="#f" y="51841"/><use x="397.01459" xlink:href="#f" y="352.468307"/><use x="403.669778" xlink:href="#f" y="352.468307"/><use x="410.324966" xlink:href="#f" y="336.590564"/><use x="416.980154" xlink:href="#f" y="336.590564"/><use x="423.635342" xlink:href="#f" y="327.302681"/><use x="430.29053" xlink:href="#f" y="327.302681"/><use x="436.945718" xlink:href="#f" y="311.424939"/><use x="443.600906" xlink:href="#f" y="311.424939"/><use x="450.256094" xlink:href="#f" y="287.568626"/><use x="456.911282" xlink:href="#f" y="287.568626"/><use x="463.56647" xlink:href="#f" y="287.568626"/><use x="470.221658" xlink:href="#f" y="287.568626"/><use x="476.876846" xlink:href="#f" y="287.568626"/><use x="483.532034" xlink:href="#f" y="285.020809"/><use x="490.187222" xlink:href="#f" y="285.020809"/><use x="496.842411" xlink:href="#f" y="280.644356"/><use x="503.497599" xlink:href="#f" y="274.557963"/><use x="510.152787" xlink:href="#f" y="274.557963"/><use x="516.807975" xlink:href="#f" y="274.557963"/><use x="523.463163" xlink:href="#f" y="269.753949"/><use x="530.118351" xlink:href="#f" y="269.143067"/><use x="536.773539" xlink:href="#f" y="266.850481"/></g><g clip-path="url(#a)" fill="#3cb371" stroke="#000" stroke-linejoin="miter" stroke-width=".5"><use x="503.656101" xlink:href="#g" y="51841"/><use x="510.152787" xlink:href="#g" y="352.468307"/><use x="516.807975" xlink:href="#g" y="352.468307"/><use x="523.463163" xlink:href="#g" y="336.590564"/><use x="530.118351" xlink:href="#g" y="336.590564"/><use x="536.773539" xlink:href="#g" y="327.302681"/></g><g clip-path="url(#a)" fill="#ffa500" stroke="#000" stroke-linejoin="round" stroke-width=".5"><use x="390.517904" xlink:href="#h" y="51841"/><use x="397.01459" xlink:href="#h" y="352.468307"/><use x="403.669778" xlink:href="#h" y="352.468307"/><use x="410.324966" xlink:href="#h" y="336.590564"/><use x="416.980154" xlink:href="#h" y="336.590564"/><use x="423.635342" xlink:href="#h" y="327.302681"/><use x="430.29053" xlink:href="#h" y="327.302681"/><use x="436.945718" xlink:href="#h" y="311.424939"/><use x="443.600906" xlink:href="#h" y="311.424939"/><use x="450.256094" xlink:href="#h" y="287.568626"/><use x="456.911282" xlink:href="#h" y="287.568626"/><use x="463.56647" xlink:href="#h" y="287.568626"/><use x="470.221658" xlink:href="#h" y="287.568626"/><use x="476.876846" xlink:href="#h" y="287.568626"/><use x="483.532034" xlink:href="#h" y="285.020809"/><use x="490.187222" xlink:href="#h" y="285.020809"/><use x="496.842411" xlink:href="#h" y="280.644356"/><use x="503.497599" xlink:href="#h" y="274.557963"/><use x="510.152787" xlink:href="#h" y="275.334537"/><use x="516.807975" xlink:href="#h" y="275.334537"/><use x="523.463163" xlink:href="#h" y="271.026873"/><use x="530.118351" xlink:href="#h" y="270.38157"/><use x="536.773539" xlink:href="#h" y="268.548053"/></g><path d="m57.6 442.08v-406.08" fill="none" stroke="#000" stroke-linecap="square" stroke-linejoin="miter" stroke-width=".8"/><path d="m669.6 442.08v-406.08" fill="none" stroke="#000" stroke-linecap="square" stroke-linejoin="miter" stroke-width=".8"/><path d="m57.6 442.08h612" fill="none" stroke="#000" stroke-linecap="square" stroke-linejoin="miter" stroke-width=".8"/><path d="m57.6 36h612" fill="none" stroke="#000" stroke-linecap="square" stroke-linejoin="miter" stroke-width=".8"/><g stroke-linejoin="round"><path d="m69.84 105.7111h121.55375v-61.68575h-121.55375z" fill="#fff" opacity=".7" stroke="#fff" stroke-linejoin="miter"/><g stroke-linejoin="round"><text transform="translate(69.84 50.2016)"><tspan font-family="DejaVu Sans" font-size="8" font-weight="bold" stroke-linejoin="round" x="0 6.191406 8.933594 12.878906 18.605469 21.347656 27.042969 29.828125 32.804688 37.566406 40.308594 45.707031 51.402344 57.128906" y="-.921875">Virgin Islands</tspan></text><text font-family="DejaVu Sans" font-size="8" transform="translate(69.84 59.2561)">Total: 42</text><text font-family="DejaVu Sans" font-size="8" transform="translate(69.84 68.21435)">Active: 39.0 (+8%/day)</text><text font-family="DejaVu Sans" font-size="8" transform="translate(69.84 77.1726)">   → doubling in 9±1 days</text><text font-family="DejaVu Sans" font-size="8" transform="translate(69.84 86.13085)">Deaths: 0 (0.0%) (Δ:+0%/day)</text><text font-family="DejaVu Sans" font-size="8" transform="translate(69.84 95.0891)">   → Δ unchanging</text><text font-family="DejaVu Sans" font-size="8" transform="translate(69.84 104.04735)">Recovered: 3.0 (7.1%)</text></g></g><g stroke-linejoin="round"><path d="m320.024531 78.330938h343.275469q1.8 0 1.8-1.8v-34.230938q0-1.8-1.8-1.8h-343.275469q-1.8 0-1.8 1.8v34.230938q0 1.8 1.8 1.8z" fill="#fff" opacity=".8" stroke="#ccc" stroke-linejoin="miter"/><path d="m321.824531 47.788594h18" fill="none" stroke="#f00" stroke-dasharray="1.5 2.475" stroke-linejoin="round" stroke-width="1.5"/><text font-family="DejaVu Sans" font-size="9" stroke-linejoin="round" x="347.024531" y="50.938594">Critical cases ≈ ICU beds</text><use fill="#00bfff" stroke="#000" stroke-linejoin="miter" stroke-width=".5" x="330.824531" xlink:href="#f" y="58.748906"/><text font-family="DejaVu Sans" font-size="9" stroke-linejoin="round" x="347.024531" y="61.898906">Total</text><use fill="#3cb371" stroke="#000" stroke-linejoin="miter" stroke-width=".5" x="330.824531" xlink:href="#g" y="69.709219"/><g stroke-linejoin="round"><text font-family="DejaVu Sans" font-size="9" x="347.024531" y="72.859219">Recovered</text><use fill="#ffa500" stroke="#000" stroke-width=".5" x="487.043438" xlink:href="#h" y="47.788594"/><text font-family="DejaVu Sans" font-size="9" x="503.243438" y="50.938594">Active</text></g><path d="m0-2.5-2.5 5h5z" fill="#ff4500" stroke="#000" stroke-linejoin="miter" stroke-width=".5" transform="translate(487.043438 58.748906)"/><text font-family="DejaVu Sans" font-size="9" stroke-linejoin="round" x="503.243438" y="61.898906">Deaths</text><path d="m553.147031 50.938594h18v-6.3h-18z" fill="#ffa500" opacity=".5" stroke-linejoin="round"/><text font-family="DejaVu Sans" font-size="9" stroke-linejoin="round" x="578.347031" y="50.938594">Active (projected)</text><path d="m553.147031 61.898906h18v-6.3h-18z" opacity=".5" stroke="#000" stroke-linejoin="miter"/><text font-family="DejaVu Sans" font-size="9" stroke-linejoin="round" x="578.347031" y="61.898906">Active growth rate</text></g></g><g><g stroke-linejoin="round"><path d="m57.6 645.12h612v-203.04h-612z" fill="#fff"/><g clip-path="url(#b)"><path d="m423.635342-217.197808v-36.96221l6.655188 23.940798 6.655188-49.607711 6.655188 25.2343 6.655188-177.450522 6.655188 114.605255 6.655188 65.123624 6.655188 39.28121 6.655188 62.013064 6.655188-9.453891 6.655188-2.250548 6.655189-13.515824 6.655188-24.059697 6.655188 5.350335 6.655188 8.345161 6.655188 7.07199 6.655188 7.575367 6.655188-4.096942v7.564876l-6.655188 7.905305-6.655188-3.400038-6.655188-1.427608-6.655188-11.344347-6.655188-6.012559-6.655188 16.877166-6.655189 8.982379-6.655188 3.257262-6.655188 2.631613-6.655188-8.024645-6.655188-24.267283-6.655188-42.697536-6.655188-69.765323-6.655188 88.895978-6.655188-15.206407-6.655188 29.102205z" fill-opacity=".5" stroke="#000" stroke-linejoin="round" stroke-opacity=".5" transform="translate(0 720)"/></g><g><g><path clip-path="url(#b)" d="m117.496692 645.12v-203.04" fill="none" stroke="#b0b0b0" stroke-dasharray=".8 1.32" stroke-width=".8"/><use stroke="#000" stroke-width=".8" x="117.496692" xlink:href="#c" y="645.12"/><text font-family="DejaVu Sans" font-size="9" text-anchor="middle" x="117.496692" y="658.958594">Feb</text></g><g><path clip-path="url(#b)" d="m164.083009 645.12v-203.04" fill="none" stroke="#b0b0b0" stroke-dasharray=".8 1.32" stroke-width=".8"/><use stroke="#000" stroke-width=".8" x="164.083009" xlink:href="#c" y="645.12"/><text font-family="DejaVu Sans" font-size="9" text-anchor="middle" x="164.083009" y="658.958594">08</text></g><g><path clip-path="url(#b)" d="m210.669325 645.12v-203.04" fill="none" stroke="#b0b0b0" stroke-dasharray=".8 1.32" stroke-width=".8"/><use stroke="#000" stroke-width=".8" x="210.669325" xlink:href="#c" y="645.12"/><text font-family="DejaVu Sans" font-size="9" text-anchor="middle" x="210.669325" y="658.958594">15</text></g><g><path clip-path="url(#b)" d="m257.255641 645.12v-203.04" fill="none" stroke="#b0b0b0" stroke-dasharray=".8 1.32" stroke-width=".8"/><use stroke="#000" stroke-width=".8" x="257.255641" xlink:href="#c" y="645.12"/><text font-family="DejaVu Sans" font-size="9" text-anchor="middle" x="257.255641" y="658.958594">22</text></g><g><path clip-path="url(#b)" d="m310.497145 645.12v-203.04" fill="none" stroke="#b0b0b0" stroke-dasharray=".8 1.32" stroke-width=".8"/><use stroke="#000" stroke-width=".8" x="310.497145" xlink:href="#c" y="645.12"/><text font-family="DejaVu Sans" font-size="9" text-anchor="middle" x="310.497145" y="658.958594">Mar</text></g><g><path clip-path="url(#b)" d="m357.083462 645.12v-203.04" fill="none" stroke="#b0b0b0" stroke-dasharray=".8 1.32" stroke-width=".8"/><use stroke="#000" stroke-width=".8" x="357.083462" xlink:href="#c" y="645.12"/><text font-family="DejaVu Sans" font-size="9" text-anchor="middle" x="357.083462" y="658.958594">08</text></g><g><path clip-path="url(#b)" d="m403.669778 645.12v-203.04" fill="none" stroke="#b0b0b0" stroke-dasharray=".8 1.32" stroke-width=".8"/><use stroke="#000" stroke-width=".8" x="403.669778" xlink:href="#c" y="645.12"/><text font-family="DejaVu Sans" font-size="9" text-anchor="middle" x="403.669778" y="658.958594">15</text></g><g><path clip-path="url(#b)" d="m450.256094 645.12v-203.04" fill="none" stroke="#b0b0b0" stroke-dasharray=".8 1.32" stroke-width=".8"/><use stroke="#000" stroke-width=".8" x="450.256094" xlink:href="#c" y="645.12"/><text font-family="DejaVu Sans" font-size="9" text-anchor="middle" x="450.256094" y="658.958594">22</text></g><g><path clip-path="url(#b)" d="m516.807975 645.12v-203.04" fill="none" stroke="#b0b0b0" stroke-dasharray=".8 1.32" stroke-width=".8"/><use stroke="#000" stroke-width=".8" x="516.807975" xlink:href="#c" y="645.12"/><text font-family="DejaVu Sans" font-size="9" text-anchor="middle" x="516.807975" y="658.958594">Apr</text></g><g><path clip-path="url(#b)" d="m563.394291 645.12v-203.04" fill="none" stroke="#b0b0b0" stroke-dasharray=".8 1.32" stroke-width=".8"/><use stroke="#000" stroke-width=".8" x="563.394291" xlink:href="#c" y="645.12"/><text font-family="DejaVu Sans" font-size="9" text-anchor="middle" x="563.394291" y="658.958594">08</text></g><g><path clip-path="url(#b)" d="m609.980607 645.12v-203.04" fill="none" stroke="#b0b0b0" stroke-dasharray=".8 1.32" stroke-width=".8"/><use stroke="#000" stroke-width=".8" x="609.980607" xlink:href="#c" y="645.12"/><text font-family="DejaVu Sans" font-size="9" text-anchor="middle" x="609.980607" y="658.958594">15</text></g><g><path clip-path="url(#b)" d="m656.566923 645.12v-203.04" fill="none" stroke="#b0b0b0" stroke-dasharray=".8 1.32" stroke-width=".8"/><use stroke="#000" stroke-width=".8" x="656.566923" xlink:href="#c" y="645.12"/><text font-family="DejaVu Sans" font-size="9" text-anchor="middle" x="656.566923" y="658.958594">22</text></g></g><g><g><path clip-path="url(#b)" d="m57.6 619.74h612" fill="none" stroke="#b0b0b0" stroke-dasharray=".8 1.32" stroke-width=".8"/><use stroke="#000" stroke-width=".8" x="57.6" xlink:href="#d" y="619.74"/><text font-family="DejaVu Sans" font-size="9" text-anchor="end" x="50.6" y="623.159297">−20</text></g><g><path clip-path="url(#b)" d="m57.6 594.36h612" fill="none" stroke="#b0b0b0" stroke-dasharray=".8 1.32" stroke-width=".8"/><use stroke="#000" stroke-width=".8" x="57.6" xlink:href="#d" y="594.36"/><text font-family="DejaVu Sans" font-size="9" text-anchor="end" x="50.6" y="597.779297">−10</text></g><g><path clip-path="url(#b)" d="m57.6 568.98h612" fill="none" stroke="#b0b0b0" stroke-dasharray=".8 1.32" stroke-width=".8"/><use stroke="#000" stroke-width=".8" x="57.6" xlink:href="#d" y="568.98"/><text font-family="DejaVu Sans" font-size="9" text-anchor="end" x="50.6" y="572.399297">0</text></g><g><path clip-path="url(#b)" d="m57.6 543.6h612" fill="none" stroke="#b0b0b0" stroke-dasharray=".8 1.32" stroke-width=".8"/><use stroke="#000" stroke-width=".8" x="57.6" xlink:href="#d" y="543.6"/><text font-family="DejaVu Sans" font-size="9" text-anchor="end" x="50.6" y="547.019297">10</text></g><g><path clip-path="url(#b)" d="m57.6 518.22h612" fill="none" stroke="#b0b0b0" stroke-dasharray=".8 1.32" stroke-width=".8"/><use stroke="#000" stroke-width=".8" x="57.6" xlink:href="#d" y="518.22"/><text font-family="DejaVu Sans" font-size="9" text-anchor="end" x="50.6" y="521.639297">20</text></g><g><path clip-path="url(#b)" d="m57.6 492.84h612" fill="none" stroke="#b0b0b0" stroke-dasharray=".8 1.32" stroke-width=".8"/><use stroke="#000" stroke-width=".8" x="57.6" xlink:href="#d" y="492.84"/><text font-family="DejaVu Sans" font-size="9" text-anchor="end" x="50.6" y="496.259297">30</text></g><g><path clip-path="url(#b)" d="m57.6 467.46h612" fill="none" stroke="#b0b0b0" stroke-dasharray=".8 1.32" stroke-width=".8"/><use stroke="#000" stroke-width=".8" x="57.6" xlink:href="#d" y="467.46"/><text font-family="DejaVu Sans" font-size="9" text-anchor="end" x="50.6" y="470.879297">40</text></g><text font-family="DejaVu Sans" font-size="9" text-anchor="middle" transform="matrix(0 -1 1 0 -517.865937 569.334063)" x="25.734063" y="543.6">Growth rate (%/day)</text></g><path clip-path="url(#b)" d="m57.6 568.98h612" fill="none" stroke="#000" stroke-linecap="square" stroke-width="1.5"/></g><path d="m57.6 645.12v-203.04" fill="none" stroke="#000" stroke-linecap="square" stroke-linejoin="miter" stroke-width=".8"/><path d="m669.6 645.12v-203.04" fill="none" stroke="#000" stroke-linecap="square" stroke-linejoin="miter" stroke-width=".8"/><path d="m57.6 645.12h612" fill="none" stroke="#000" stroke-linecap="square" stroke-linejoin="miter" stroke-width=".8"/><path d="m57.6 442.08h612" fill="none" stroke="#000" stroke-linecap="square" stroke-linejoin="miter" stroke-width=".8"/></g><g><g stroke-linejoin="round"><g><use stroke="#000" stroke-width=".8" x="669.6" xlink:href="#i" y="619.74"/><text font-family="DejaVu Sans" font-size="9" x="676.6" y="623.159297">-3.1</text></g><g><use stroke="#000" stroke-width=".8" x="669.6" xlink:href="#i" y="594.36"/><text font-family="DejaVu Sans" font-size="9" x="676.6" y="597.779297">-6.6</text></g><g><use stroke="#000" stroke-width=".8" x="669.6" xlink:href="#i" y="568.98"/><text font-family="DejaVu Sans" font-size="9" x="676.6" y="572.399297">∞</text></g><g><use stroke="#000" stroke-width=".8" x="669.6" xlink:href="#i" y="543.6"/><text font-family="DejaVu Sans" font-size="9" x="676.6" y="547.019297">7.3</text></g><g><use stroke="#000" stroke-width=".8" x="669.6" xlink:href="#i" y="518.22"/><text font-family="DejaVu Sans" font-size="9" x="676.6" y="521.639297">3.8</text></g><g><use stroke="#000" stroke-width=".8" x="669.6" xlink:href="#i" y="492.84"/><text font-family="DejaVu Sans" font-size="9" x="676.6" y="496.259297">2.6</text></g><g><use stroke="#000" stroke-width=".8" x="669.6" xlink:href="#i" y="467.46"/><text font-family="DejaVu Sans" font-size="9" x="676.6" y="470.879297">2.1</text></g><text font-family="DejaVu Sans" font-size="9" text-anchor="middle" transform="matrix(0 -1 1 0 161.398438 1248.598438)" x="704.998438" y="543.6">Doubling time (days)</text></g><g fill="none" stroke="#000" stroke-linecap="square" stroke-linejoin="miter" stroke-width=".8"><path d="m57.6 645.12v-203.04"/><path d="m669.6 645.12v-203.04"/><path d="m57.6 645.12h612"/><path d="m57.6 442.08h612"/></g></g><text font-family="DejaVu Sans" font-size="12" text-anchor="middle" x="360" y="23.518125">Virgin Islands per-capita COVID-19 cases and exponential projection</text></g></svg>